<mxfile host="65bd71144e">
    <diagram id="R2lEEEUBdFMjLlhIrx00" name="Page-1">
        <mxGraphModel grid="1" page="1" gridSize="10" guides="1" tooltips="1" connect="1" arrows="1" fold="1" pageScale="1" pageWidth="850" pageHeight="1100" math="0" shadow="0" extFonts="Permanent Marker^https://fonts.googleapis.com/css?family=Permanent+Marker">
            <root>
                <mxCell id="0"/>
                <mxCell id="1" parent="0"/>
                <mxCell id="C-vyLk0tnHw3VtMMgP7b-2" value="Points" style="shape=table;startSize=30;container=1;collapsible=1;childLayout=tableLayout;fixedRows=1;rowLines=0;fontStyle=1;align=center;resizeLast=1;" parent="1" vertex="1">
                    <mxGeometry x="910" y="380" width="250" height="280" as="geometry"/>
                </mxCell>
                <mxCell id="C-vyLk0tnHw3VtMMgP7b-3" value="" style="shape=partialRectangle;collapsible=0;dropTarget=0;pointerEvents=0;fillColor=none;points=[[0,0.5],[1,0.5]];portConstraint=eastwest;top=0;left=0;right=0;bottom=1;" parent="C-vyLk0tnHw3VtMMgP7b-2" vertex="1">
                    <mxGeometry y="30" width="250" height="30" as="geometry"/>
                </mxCell>
                <mxCell id="C-vyLk0tnHw3VtMMgP7b-4" value="PK" style="shape=partialRectangle;overflow=hidden;connectable=0;fillColor=none;top=0;left=0;bottom=0;right=0;fontStyle=1;" parent="C-vyLk0tnHw3VtMMgP7b-3" vertex="1">
                    <mxGeometry width="30" height="30" as="geometry">
                        <mxRectangle width="30" height="30" as="alternateBounds"/>
                    </mxGeometry>
                </mxCell>
                <mxCell id="C-vyLk0tnHw3VtMMgP7b-5" value="point_id" style="shape=partialRectangle;overflow=hidden;connectable=0;fillColor=none;top=0;left=0;bottom=0;right=0;align=left;spacingLeft=6;fontStyle=5;" parent="C-vyLk0tnHw3VtMMgP7b-3" vertex="1">
                    <mxGeometry x="30" width="220" height="30" as="geometry">
                        <mxRectangle width="220" height="30" as="alternateBounds"/>
                    </mxGeometry>
                </mxCell>
                <mxCell id="C-vyLk0tnHw3VtMMgP7b-6" value="" style="shape=partialRectangle;collapsible=0;dropTarget=0;pointerEvents=0;fillColor=none;points=[[0,0.5],[1,0.5]];portConstraint=eastwest;top=0;left=0;right=0;bottom=0;" parent="C-vyLk0tnHw3VtMMgP7b-2" vertex="1">
                    <mxGeometry y="60" width="250" height="30" as="geometry"/>
                </mxCell>
                <mxCell id="C-vyLk0tnHw3VtMMgP7b-7" value="" style="shape=partialRectangle;overflow=hidden;connectable=0;fillColor=none;top=0;left=0;bottom=0;right=0;" parent="C-vyLk0tnHw3VtMMgP7b-6" vertex="1">
                    <mxGeometry width="30" height="30" as="geometry">
                        <mxRectangle width="30" height="30" as="alternateBounds"/>
                    </mxGeometry>
                </mxCell>
                <mxCell id="C-vyLk0tnHw3VtMMgP7b-8" value="ファーストorセカンド" style="shape=partialRectangle;overflow=hidden;connectable=0;fillColor=none;top=0;left=0;bottom=0;right=0;align=left;spacingLeft=6;" parent="C-vyLk0tnHw3VtMMgP7b-6" vertex="1">
                    <mxGeometry x="30" width="220" height="30" as="geometry">
                        <mxRectangle width="220" height="30" as="alternateBounds"/>
                    </mxGeometry>
                </mxCell>
                <mxCell id="C-vyLk0tnHw3VtMMgP7b-9" value="" style="shape=partialRectangle;collapsible=0;dropTarget=0;pointerEvents=0;fillColor=none;points=[[0,0.5],[1,0.5]];portConstraint=eastwest;top=0;left=0;right=0;bottom=0;" parent="C-vyLk0tnHw3VtMMgP7b-2" vertex="1">
                    <mxGeometry y="90" width="250" height="30" as="geometry"/>
                </mxCell>
                <mxCell id="C-vyLk0tnHw3VtMMgP7b-10" value="" style="shape=partialRectangle;overflow=hidden;connectable=0;fillColor=none;top=0;left=0;bottom=0;right=0;" parent="C-vyLk0tnHw3VtMMgP7b-9" vertex="1">
                    <mxGeometry width="30" height="30" as="geometry">
                        <mxRectangle width="30" height="30" as="alternateBounds"/>
                    </mxGeometry>
                </mxCell>
                <mxCell id="C-vyLk0tnHw3VtMMgP7b-11" value="フォアorバック" style="shape=partialRectangle;overflow=hidden;connectable=0;fillColor=none;top=0;left=0;bottom=0;right=0;align=left;spacingLeft=6;" parent="C-vyLk0tnHw3VtMMgP7b-9" vertex="1">
                    <mxGeometry x="30" width="220" height="30" as="geometry">
                        <mxRectangle width="220" height="30" as="alternateBounds"/>
                    </mxGeometry>
                </mxCell>
                <mxCell id="_-bMv8JtdGMAL5OxYCuw-51" value="" style="shape=partialRectangle;collapsible=0;dropTarget=0;pointerEvents=0;fillColor=none;points=[[0,0.5],[1,0.5]];portConstraint=eastwest;top=0;left=0;right=0;bottom=0;" parent="C-vyLk0tnHw3VtMMgP7b-2" vertex="1">
                    <mxGeometry y="120" width="250" height="30" as="geometry"/>
                </mxCell>
                <mxCell id="_-bMv8JtdGMAL5OxYCuw-52" value="" style="shape=partialRectangle;overflow=hidden;connectable=0;fillColor=none;top=0;left=0;bottom=0;right=0;" parent="_-bMv8JtdGMAL5OxYCuw-51" vertex="1">
                    <mxGeometry width="30" height="30" as="geometry">
                        <mxRectangle width="30" height="30" as="alternateBounds"/>
                    </mxGeometry>
                </mxCell>
                <mxCell id="_-bMv8JtdGMAL5OxYCuw-53" value="球種" style="shape=partialRectangle;overflow=hidden;connectable=0;fillColor=none;top=0;left=0;bottom=0;right=0;align=left;spacingLeft=6;" parent="_-bMv8JtdGMAL5OxYCuw-51" vertex="1">
                    <mxGeometry x="30" width="220" height="30" as="geometry">
                        <mxRectangle width="220" height="30" as="alternateBounds"/>
                    </mxGeometry>
                </mxCell>
                <mxCell id="_-bMv8JtdGMAL5OxYCuw-54" value="" style="shape=partialRectangle;collapsible=0;dropTarget=0;pointerEvents=0;fillColor=none;points=[[0,0.5],[1,0.5]];portConstraint=eastwest;top=0;left=0;right=0;bottom=0;" parent="C-vyLk0tnHw3VtMMgP7b-2" vertex="1">
                    <mxGeometry y="150" width="250" height="30" as="geometry"/>
                </mxCell>
                <mxCell id="_-bMv8JtdGMAL5OxYCuw-55" value="" style="shape=partialRectangle;overflow=hidden;connectable=0;fillColor=none;top=0;left=0;bottom=0;right=0;" parent="_-bMv8JtdGMAL5OxYCuw-54" vertex="1">
                    <mxGeometry width="30" height="30" as="geometry">
                        <mxRectangle width="30" height="30" as="alternateBounds"/>
                    </mxGeometry>
                </mxCell>
                <mxCell id="_-bMv8JtdGMAL5OxYCuw-56" value="打ったコース" style="shape=partialRectangle;overflow=hidden;connectable=0;fillColor=none;top=0;left=0;bottom=0;right=0;align=left;spacingLeft=6;" parent="_-bMv8JtdGMAL5OxYCuw-54" vertex="1">
                    <mxGeometry x="30" width="220" height="30" as="geometry">
                        <mxRectangle width="220" height="30" as="alternateBounds"/>
                    </mxGeometry>
                </mxCell>
                <mxCell id="_-bMv8JtdGMAL5OxYCuw-57" value="" style="shape=partialRectangle;collapsible=0;dropTarget=0;pointerEvents=0;fillColor=none;points=[[0,0.5],[1,0.5]];portConstraint=eastwest;top=0;left=0;right=0;bottom=0;" parent="C-vyLk0tnHw3VtMMgP7b-2" vertex="1">
                    <mxGeometry y="180" width="250" height="30" as="geometry"/>
                </mxCell>
                <mxCell id="_-bMv8JtdGMAL5OxYCuw-58" value="" style="shape=partialRectangle;overflow=hidden;connectable=0;fillColor=none;top=0;left=0;bottom=0;right=0;" parent="_-bMv8JtdGMAL5OxYCuw-57" vertex="1">
                    <mxGeometry width="30" height="30" as="geometry">
                        <mxRectangle width="30" height="30" as="alternateBounds"/>
                    </mxGeometry>
                </mxCell>
                <mxCell id="_-bMv8JtdGMAL5OxYCuw-59" value="ポーチボレーしに行ったコース" style="shape=partialRectangle;overflow=hidden;connectable=0;fillColor=none;top=0;left=0;bottom=0;right=0;align=left;spacingLeft=6;" parent="_-bMv8JtdGMAL5OxYCuw-57" vertex="1">
                    <mxGeometry x="30" width="220" height="30" as="geometry">
                        <mxRectangle width="220" height="30" as="alternateBounds"/>
                    </mxGeometry>
                </mxCell>
                <mxCell id="_-bMv8JtdGMAL5OxYCuw-60" value="" style="shape=partialRectangle;collapsible=0;dropTarget=0;pointerEvents=0;fillColor=none;points=[[0,0.5],[1,0.5]];portConstraint=eastwest;top=0;left=0;right=0;bottom=0;" parent="C-vyLk0tnHw3VtMMgP7b-2" vertex="1">
                    <mxGeometry y="210" width="250" height="30" as="geometry"/>
                </mxCell>
                <mxCell id="_-bMv8JtdGMAL5OxYCuw-61" value="" style="shape=partialRectangle;overflow=hidden;connectable=0;fillColor=none;top=0;left=0;bottom=0;right=0;" parent="_-bMv8JtdGMAL5OxYCuw-60" vertex="1">
                    <mxGeometry width="30" height="30" as="geometry">
                        <mxRectangle width="30" height="30" as="alternateBounds"/>
                    </mxGeometry>
                </mxCell>
                <mxCell id="_-bMv8JtdGMAL5OxYCuw-62" value="何ラリー目" style="shape=partialRectangle;overflow=hidden;connectable=0;fillColor=none;top=0;left=0;bottom=0;right=0;align=left;spacingLeft=6;" parent="_-bMv8JtdGMAL5OxYCuw-60" vertex="1">
                    <mxGeometry x="30" width="220" height="30" as="geometry">
                        <mxRectangle width="220" height="30" as="alternateBounds"/>
                    </mxGeometry>
                </mxCell>
                <mxCell id="_-bMv8JtdGMAL5OxYCuw-63" value="" style="shape=partialRectangle;collapsible=0;dropTarget=0;pointerEvents=0;fillColor=none;points=[[0,0.5],[1,0.5]];portConstraint=eastwest;top=0;left=0;right=0;bottom=0;" parent="C-vyLk0tnHw3VtMMgP7b-2" vertex="1">
                    <mxGeometry y="240" width="250" height="30" as="geometry"/>
                </mxCell>
                <mxCell id="_-bMv8JtdGMAL5OxYCuw-64" value="" style="shape=partialRectangle;overflow=hidden;connectable=0;fillColor=none;top=0;left=0;bottom=0;right=0;" parent="_-bMv8JtdGMAL5OxYCuw-63" vertex="1">
                    <mxGeometry width="30" height="30" as="geometry">
                        <mxRectangle width="30" height="30" as="alternateBounds"/>
                    </mxGeometry>
                </mxCell>
                <mxCell id="_-bMv8JtdGMAL5OxYCuw-65" value="何ポイント目" style="shape=partialRectangle;overflow=hidden;connectable=0;fillColor=none;top=0;left=0;bottom=0;right=0;align=left;spacingLeft=6;" parent="_-bMv8JtdGMAL5OxYCuw-63" vertex="1">
                    <mxGeometry x="30" width="220" height="30" as="geometry">
                        <mxRectangle width="220" height="30" as="alternateBounds"/>
                    </mxGeometry>
                </mxCell>
                <mxCell id="C-vyLk0tnHw3VtMMgP7b-23" value="Players" style="shape=table;startSize=30;container=1;collapsible=1;childLayout=tableLayout;fixedRows=1;rowLines=0;fontStyle=1;align=center;resizeLast=1;" parent="1" vertex="1">
                    <mxGeometry x="-209" y="-340" width="250" height="100" as="geometry">
                        <mxRectangle x="70" y="120" width="100" height="30" as="alternateBounds"/>
                    </mxGeometry>
                </mxCell>
                <mxCell id="C-vyLk0tnHw3VtMMgP7b-24" value="" style="shape=partialRectangle;collapsible=0;dropTarget=0;pointerEvents=0;fillColor=none;points=[[0,0.5],[1,0.5]];portConstraint=eastwest;top=0;left=0;right=0;bottom=1;" parent="C-vyLk0tnHw3VtMMgP7b-23" vertex="1">
                    <mxGeometry y="30" width="250" height="30" as="geometry"/>
                </mxCell>
                <mxCell id="C-vyLk0tnHw3VtMMgP7b-25" value="PK" style="shape=partialRectangle;overflow=hidden;connectable=0;fillColor=none;top=0;left=0;bottom=0;right=0;fontStyle=1;" parent="C-vyLk0tnHw3VtMMgP7b-24" vertex="1">
                    <mxGeometry width="30" height="30" as="geometry">
                        <mxRectangle width="30" height="30" as="alternateBounds"/>
                    </mxGeometry>
                </mxCell>
                <mxCell id="C-vyLk0tnHw3VtMMgP7b-26" value="player id" style="shape=partialRectangle;overflow=hidden;connectable=0;fillColor=none;top=0;left=0;bottom=0;right=0;align=left;spacingLeft=6;fontStyle=5;" parent="C-vyLk0tnHw3VtMMgP7b-24" vertex="1">
                    <mxGeometry x="30" width="220" height="30" as="geometry">
                        <mxRectangle width="220" height="30" as="alternateBounds"/>
                    </mxGeometry>
                </mxCell>
                <mxCell id="C-vyLk0tnHw3VtMMgP7b-27" value="" style="shape=partialRectangle;collapsible=0;dropTarget=0;pointerEvents=0;fillColor=none;points=[[0,0.5],[1,0.5]];portConstraint=eastwest;top=0;left=0;right=0;bottom=0;" parent="C-vyLk0tnHw3VtMMgP7b-23" vertex="1">
                    <mxGeometry y="60" width="250" height="30" as="geometry"/>
                </mxCell>
                <mxCell id="C-vyLk0tnHw3VtMMgP7b-28" value="" style="shape=partialRectangle;overflow=hidden;connectable=0;fillColor=none;top=0;left=0;bottom=0;right=0;" parent="C-vyLk0tnHw3VtMMgP7b-27" vertex="1">
                    <mxGeometry width="30" height="30" as="geometry">
                        <mxRectangle width="30" height="30" as="alternateBounds"/>
                    </mxGeometry>
                </mxCell>
                <mxCell id="C-vyLk0tnHw3VtMMgP7b-29" value="プレイヤー名" style="shape=partialRectangle;overflow=hidden;connectable=0;fillColor=none;top=0;left=0;bottom=0;right=0;align=left;spacingLeft=6;" parent="C-vyLk0tnHw3VtMMgP7b-27" vertex="1">
                    <mxGeometry x="30" width="220" height="30" as="geometry">
                        <mxRectangle width="220" height="30" as="alternateBounds"/>
                    </mxGeometry>
                </mxCell>
                <mxCell id="_-bMv8JtdGMAL5OxYCuw-94" value="Match" style="shape=table;startSize=30;container=1;collapsible=1;childLayout=tableLayout;fixedRows=1;rowLines=0;fontStyle=1;align=center;resizeLast=1;" parent="1" vertex="1">
                    <mxGeometry x="1120" y="-340" width="250" height="130" as="geometry">
                        <mxRectangle x="70" y="120" width="100" height="30" as="alternateBounds"/>
                    </mxGeometry>
                </mxCell>
                <mxCell id="_-bMv8JtdGMAL5OxYCuw-95" value="" style="shape=partialRectangle;collapsible=0;dropTarget=0;pointerEvents=0;fillColor=none;points=[[0,0.5],[1,0.5]];portConstraint=eastwest;top=0;left=0;right=0;bottom=1;" parent="_-bMv8JtdGMAL5OxYCuw-94" vertex="1">
                    <mxGeometry y="30" width="250" height="30" as="geometry"/>
                </mxCell>
                <mxCell id="_-bMv8JtdGMAL5OxYCuw-96" value="PK" style="shape=partialRectangle;overflow=hidden;connectable=0;fillColor=none;top=0;left=0;bottom=0;right=0;fontStyle=1;" parent="_-bMv8JtdGMAL5OxYCuw-95" vertex="1">
                    <mxGeometry width="30" height="30" as="geometry">
                        <mxRectangle width="30" height="30" as="alternateBounds"/>
                    </mxGeometry>
                </mxCell>
                <mxCell id="_-bMv8JtdGMAL5OxYCuw-97" value="match_id" style="shape=partialRectangle;overflow=hidden;connectable=0;fillColor=none;top=0;left=0;bottom=0;right=0;align=left;spacingLeft=6;fontStyle=5;" parent="_-bMv8JtdGMAL5OxYCuw-95" vertex="1">
                    <mxGeometry x="30" width="220" height="30" as="geometry">
                        <mxRectangle width="220" height="30" as="alternateBounds"/>
                    </mxGeometry>
                </mxCell>
                <mxCell id="_-bMv8JtdGMAL5OxYCuw-98" value="" style="shape=partialRectangle;collapsible=0;dropTarget=0;pointerEvents=0;fillColor=none;points=[[0,0.5],[1,0.5]];portConstraint=eastwest;top=0;left=0;right=0;bottom=0;" parent="_-bMv8JtdGMAL5OxYCuw-94" vertex="1">
                    <mxGeometry y="60" width="250" height="30" as="geometry"/>
                </mxCell>
                <mxCell id="_-bMv8JtdGMAL5OxYCuw-99" value="" style="shape=partialRectangle;overflow=hidden;connectable=0;fillColor=none;top=0;left=0;bottom=0;right=0;" parent="_-bMv8JtdGMAL5OxYCuw-98" vertex="1">
                    <mxGeometry width="30" height="30" as="geometry">
                        <mxRectangle width="30" height="30" as="alternateBounds"/>
                    </mxGeometry>
                </mxCell>
                <mxCell id="_-bMv8JtdGMAL5OxYCuw-100" value="名前" style="shape=partialRectangle;overflow=hidden;connectable=0;fillColor=none;top=0;left=0;bottom=0;right=0;align=left;spacingLeft=6;" parent="_-bMv8JtdGMAL5OxYCuw-98" vertex="1">
                    <mxGeometry x="30" width="220" height="30" as="geometry">
                        <mxRectangle width="220" height="30" as="alternateBounds"/>
                    </mxGeometry>
                </mxCell>
                <mxCell id="_-bMv8JtdGMAL5OxYCuw-127" value="" style="shape=partialRectangle;collapsible=0;dropTarget=0;pointerEvents=0;fillColor=none;points=[[0,0.5],[1,0.5]];portConstraint=eastwest;top=0;left=0;right=0;bottom=0;" parent="_-bMv8JtdGMAL5OxYCuw-94" vertex="1">
                    <mxGeometry y="90" width="250" height="30" as="geometry"/>
                </mxCell>
                <mxCell id="_-bMv8JtdGMAL5OxYCuw-128" value="" style="shape=partialRectangle;overflow=hidden;connectable=0;fillColor=none;top=0;left=0;bottom=0;right=0;" parent="_-bMv8JtdGMAL5OxYCuw-127" vertex="1">
                    <mxGeometry width="30" height="30" as="geometry">
                        <mxRectangle width="30" height="30" as="alternateBounds"/>
                    </mxGeometry>
                </mxCell>
                <mxCell id="_-bMv8JtdGMAL5OxYCuw-129" value="作成日時" style="shape=partialRectangle;overflow=hidden;connectable=0;fillColor=none;top=0;left=0;bottom=0;right=0;align=left;spacingLeft=6;" parent="_-bMv8JtdGMAL5OxYCuw-127" vertex="1">
                    <mxGeometry x="30" width="220" height="30" as="geometry">
                        <mxRectangle width="220" height="30" as="alternateBounds"/>
                    </mxGeometry>
                </mxCell>
                <mxCell id="_-bMv8JtdGMAL5OxYCuw-101" value="team" style="shape=table;startSize=30;container=1;collapsible=1;childLayout=tableLayout;fixedRows=1;rowLines=0;fontStyle=1;align=center;resizeLast=1;" parent="1" vertex="1">
                    <mxGeometry x="440" y="-340" width="250" height="100" as="geometry">
                        <mxRectangle x="70" y="120" width="100" height="30" as="alternateBounds"/>
                    </mxGeometry>
                </mxCell>
                <mxCell id="_-bMv8JtdGMAL5OxYCuw-102" value="" style="shape=partialRectangle;collapsible=0;dropTarget=0;pointerEvents=0;fillColor=none;points=[[0,0.5],[1,0.5]];portConstraint=eastwest;top=0;left=0;right=0;bottom=1;" parent="_-bMv8JtdGMAL5OxYCuw-101" vertex="1">
                    <mxGeometry y="30" width="250" height="30" as="geometry"/>
                </mxCell>
                <mxCell id="_-bMv8JtdGMAL5OxYCuw-103" value="PK" style="shape=partialRectangle;overflow=hidden;connectable=0;fillColor=none;top=0;left=0;bottom=0;right=0;fontStyle=1;" parent="_-bMv8JtdGMAL5OxYCuw-102" vertex="1">
                    <mxGeometry width="30" height="30" as="geometry">
                        <mxRectangle width="30" height="30" as="alternateBounds"/>
                    </mxGeometry>
                </mxCell>
                <mxCell id="_-bMv8JtdGMAL5OxYCuw-104" value="team_id" style="shape=partialRectangle;overflow=hidden;connectable=0;fillColor=none;top=0;left=0;bottom=0;right=0;align=left;spacingLeft=6;fontStyle=5;" parent="_-bMv8JtdGMAL5OxYCuw-102" vertex="1">
                    <mxGeometry x="30" width="220" height="30" as="geometry">
                        <mxRectangle width="220" height="30" as="alternateBounds"/>
                    </mxGeometry>
                </mxCell>
                <mxCell id="_-bMv8JtdGMAL5OxYCuw-105" value="" style="shape=partialRectangle;collapsible=0;dropTarget=0;pointerEvents=0;fillColor=none;points=[[0,0.5],[1,0.5]];portConstraint=eastwest;top=0;left=0;right=0;bottom=0;" parent="_-bMv8JtdGMAL5OxYCuw-101" vertex="1">
                    <mxGeometry y="60" width="250" height="30" as="geometry"/>
                </mxCell>
                <mxCell id="_-bMv8JtdGMAL5OxYCuw-106" value="" style="shape=partialRectangle;overflow=hidden;connectable=0;fillColor=none;top=0;left=0;bottom=0;right=0;" parent="_-bMv8JtdGMAL5OxYCuw-105" vertex="1">
                    <mxGeometry width="30" height="30" as="geometry">
                        <mxRectangle width="30" height="30" as="alternateBounds"/>
                    </mxGeometry>
                </mxCell>
                <mxCell id="_-bMv8JtdGMAL5OxYCuw-107" value="チーム名" style="shape=partialRectangle;overflow=hidden;connectable=0;fillColor=none;top=0;left=0;bottom=0;right=0;align=left;spacingLeft=6;" parent="_-bMv8JtdGMAL5OxYCuw-105" vertex="1">
                    <mxGeometry x="30" width="220" height="30" as="geometry">
                        <mxRectangle width="220" height="30" as="alternateBounds"/>
                    </mxGeometry>
                </mxCell>
                <mxCell id="_-bMv8JtdGMAL5OxYCuw-108" value="player_teams" style="shape=table;startSize=30;container=1;collapsible=1;childLayout=tableLayout;fixedRows=1;rowLines=0;fontStyle=1;align=center;resizeLast=1;" parent="1" vertex="1">
                    <mxGeometry x="120" y="-340" width="250" height="100" as="geometry">
                        <mxRectangle x="70" y="120" width="100" height="30" as="alternateBounds"/>
                    </mxGeometry>
                </mxCell>
                <mxCell id="_-bMv8JtdGMAL5OxYCuw-109" value="" style="shape=partialRectangle;collapsible=0;dropTarget=0;pointerEvents=0;fillColor=none;points=[[0,0.5],[1,0.5]];portConstraint=eastwest;top=0;left=0;right=0;bottom=1;" parent="_-bMv8JtdGMAL5OxYCuw-108" vertex="1">
                    <mxGeometry y="30" width="250" height="30" as="geometry"/>
                </mxCell>
                <mxCell id="_-bMv8JtdGMAL5OxYCuw-110" value="FK" style="shape=partialRectangle;overflow=hidden;connectable=0;fillColor=none;top=0;left=0;bottom=0;right=0;fontStyle=1;" parent="_-bMv8JtdGMAL5OxYCuw-109" vertex="1">
                    <mxGeometry width="30" height="30" as="geometry">
                        <mxRectangle width="30" height="30" as="alternateBounds"/>
                    </mxGeometry>
                </mxCell>
                <mxCell id="_-bMv8JtdGMAL5OxYCuw-111" value="player_id" style="shape=partialRectangle;overflow=hidden;connectable=0;fillColor=none;top=0;left=0;bottom=0;right=0;align=left;spacingLeft=6;fontStyle=5;" parent="_-bMv8JtdGMAL5OxYCuw-109" vertex="1">
                    <mxGeometry x="30" width="220" height="30" as="geometry">
                        <mxRectangle width="220" height="30" as="alternateBounds"/>
                    </mxGeometry>
                </mxCell>
                <mxCell id="_-bMv8JtdGMAL5OxYCuw-112" value="" style="shape=partialRectangle;collapsible=0;dropTarget=0;pointerEvents=0;fillColor=none;points=[[0,0.5],[1,0.5]];portConstraint=eastwest;top=0;left=0;right=0;bottom=0;" parent="_-bMv8JtdGMAL5OxYCuw-108" vertex="1">
                    <mxGeometry y="60" width="250" height="30" as="geometry"/>
                </mxCell>
                <mxCell id="_-bMv8JtdGMAL5OxYCuw-113" value="FK" style="shape=partialRectangle;overflow=hidden;connectable=0;fillColor=none;top=0;left=0;bottom=0;right=0;" parent="_-bMv8JtdGMAL5OxYCuw-112" vertex="1">
                    <mxGeometry width="30" height="30" as="geometry">
                        <mxRectangle width="30" height="30" as="alternateBounds"/>
                    </mxGeometry>
                </mxCell>
                <mxCell id="_-bMv8JtdGMAL5OxYCuw-114" value="team_id" style="shape=partialRectangle;overflow=hidden;connectable=0;fillColor=none;top=0;left=0;bottom=0;right=0;align=left;spacingLeft=6;" parent="_-bMv8JtdGMAL5OxYCuw-112" vertex="1">
                    <mxGeometry x="30" width="220" height="30" as="geometry">
                        <mxRectangle width="220" height="30" as="alternateBounds"/>
                    </mxGeometry>
                </mxCell>
                <mxCell id="_-bMv8JtdGMAL5OxYCuw-115" value="" style="edgeStyle=entityRelationEdgeStyle;fontSize=12;html=1;endArrow=ERoneToMany;startArrow=ERmandOne;rounded=0;exitX=1;exitY=0.5;exitDx=0;exitDy=0;entryX=0;entryY=0.5;entryDx=0;entryDy=0;" parent="1" source="C-vyLk0tnHw3VtMMgP7b-24" target="_-bMv8JtdGMAL5OxYCuw-109" edge="1">
                    <mxGeometry width="100" height="100" relative="1" as="geometry">
                        <mxPoint x="260" y="-110" as="sourcePoint"/>
                        <mxPoint x="360" y="-210" as="targetPoint"/>
                    </mxGeometry>
                </mxCell>
                <mxCell id="_-bMv8JtdGMAL5OxYCuw-116" value="" style="edgeStyle=entityRelationEdgeStyle;fontSize=12;html=1;endArrow=ERoneToMany;startArrow=ERmandOne;rounded=0;exitX=0;exitY=0.5;exitDx=0;exitDy=0;" parent="1" source="_-bMv8JtdGMAL5OxYCuw-102" target="_-bMv8JtdGMAL5OxYCuw-109" edge="1">
                    <mxGeometry width="100" height="100" relative="1" as="geometry">
                        <mxPoint x="380" y="-100" as="sourcePoint"/>
                        <mxPoint x="500" y="-100" as="targetPoint"/>
                    </mxGeometry>
                </mxCell>
                <mxCell id="_-bMv8JtdGMAL5OxYCuw-117" value="team_matches" style="shape=table;startSize=30;container=1;collapsible=1;childLayout=tableLayout;fixedRows=1;rowLines=0;fontStyle=1;align=center;resizeLast=1;" parent="1" vertex="1">
                    <mxGeometry x="770" y="-340" width="250" height="100" as="geometry">
                        <mxRectangle x="70" y="120" width="100" height="30" as="alternateBounds"/>
                    </mxGeometry>
                </mxCell>
                <mxCell id="_-bMv8JtdGMAL5OxYCuw-118" value="" style="shape=partialRectangle;collapsible=0;dropTarget=0;pointerEvents=0;fillColor=none;points=[[0,0.5],[1,0.5]];portConstraint=eastwest;top=0;left=0;right=0;bottom=1;" parent="_-bMv8JtdGMAL5OxYCuw-117" vertex="1">
                    <mxGeometry y="30" width="250" height="30" as="geometry"/>
                </mxCell>
                <mxCell id="_-bMv8JtdGMAL5OxYCuw-119" value="FK" style="shape=partialRectangle;overflow=hidden;connectable=0;fillColor=none;top=0;left=0;bottom=0;right=0;fontStyle=1;" parent="_-bMv8JtdGMAL5OxYCuw-118" vertex="1">
                    <mxGeometry width="30" height="30" as="geometry">
                        <mxRectangle width="30" height="30" as="alternateBounds"/>
                    </mxGeometry>
                </mxCell>
                <mxCell id="_-bMv8JtdGMAL5OxYCuw-120" value="team_id" style="shape=partialRectangle;overflow=hidden;connectable=0;fillColor=none;top=0;left=0;bottom=0;right=0;align=left;spacingLeft=6;fontStyle=5;" parent="_-bMv8JtdGMAL5OxYCuw-118" vertex="1">
                    <mxGeometry x="30" width="220" height="30" as="geometry">
                        <mxRectangle width="220" height="30" as="alternateBounds"/>
                    </mxGeometry>
                </mxCell>
                <mxCell id="_-bMv8JtdGMAL5OxYCuw-121" value="" style="shape=partialRectangle;collapsible=0;dropTarget=0;pointerEvents=0;fillColor=none;points=[[0,0.5],[1,0.5]];portConstraint=eastwest;top=0;left=0;right=0;bottom=0;" parent="_-bMv8JtdGMAL5OxYCuw-117" vertex="1">
                    <mxGeometry y="60" width="250" height="30" as="geometry"/>
                </mxCell>
                <mxCell id="_-bMv8JtdGMAL5OxYCuw-122" value="FK" style="shape=partialRectangle;overflow=hidden;connectable=0;fillColor=none;top=0;left=0;bottom=0;right=0;" parent="_-bMv8JtdGMAL5OxYCuw-121" vertex="1">
                    <mxGeometry width="30" height="30" as="geometry">
                        <mxRectangle width="30" height="30" as="alternateBounds"/>
                    </mxGeometry>
                </mxCell>
                <mxCell id="_-bMv8JtdGMAL5OxYCuw-123" value="match_id" style="shape=partialRectangle;overflow=hidden;connectable=0;fillColor=none;top=0;left=0;bottom=0;right=0;align=left;spacingLeft=6;" parent="_-bMv8JtdGMAL5OxYCuw-121" vertex="1">
                    <mxGeometry x="30" width="220" height="30" as="geometry">
                        <mxRectangle width="220" height="30" as="alternateBounds"/>
                    </mxGeometry>
                </mxCell>
                <mxCell id="_-bMv8JtdGMAL5OxYCuw-125" value="" style="edgeStyle=entityRelationEdgeStyle;fontSize=12;html=1;endArrow=ERoneToMany;startArrow=ERmandOne;rounded=0;exitX=0;exitY=0.5;exitDx=0;exitDy=0;entryX=1;entryY=0.5;entryDx=0;entryDy=0;" parent="1" source="_-bMv8JtdGMAL5OxYCuw-95" target="_-bMv8JtdGMAL5OxYCuw-118" edge="1">
                    <mxGeometry width="100" height="100" relative="1" as="geometry">
                        <mxPoint x="1110" y="-220" as="sourcePoint"/>
                        <mxPoint x="1060" y="-220" as="targetPoint"/>
                    </mxGeometry>
                </mxCell>
                <mxCell id="_-bMv8JtdGMAL5OxYCuw-126" value="" style="edgeStyle=entityRelationEdgeStyle;fontSize=12;html=1;endArrow=ERoneToMany;startArrow=ERmandOne;rounded=0;exitX=1;exitY=0.5;exitDx=0;exitDy=0;entryX=0;entryY=0.5;entryDx=0;entryDy=0;" parent="1" source="_-bMv8JtdGMAL5OxYCuw-102" target="_-bMv8JtdGMAL5OxYCuw-118" edge="1">
                    <mxGeometry width="100" height="100" relative="1" as="geometry">
                        <mxPoint x="690" y="-200" as="sourcePoint"/>
                        <mxPoint x="770" y="-200" as="targetPoint"/>
                    </mxGeometry>
                </mxCell>
                <mxCell id="_-bMv8JtdGMAL5OxYCuw-132" value="games" style="shape=table;startSize=30;container=1;collapsible=1;childLayout=tableLayout;fixedRows=1;rowLines=0;fontStyle=1;align=center;resizeLast=1;" parent="1" vertex="1">
                    <mxGeometry x="1120" y="-120" width="250" height="130" as="geometry">
                        <mxRectangle x="70" y="120" width="100" height="30" as="alternateBounds"/>
                    </mxGeometry>
                </mxCell>
                <mxCell id="_-bMv8JtdGMAL5OxYCuw-133" value="" style="shape=partialRectangle;collapsible=0;dropTarget=0;pointerEvents=0;fillColor=none;points=[[0,0.5],[1,0.5]];portConstraint=eastwest;top=0;left=0;right=0;bottom=1;" parent="_-bMv8JtdGMAL5OxYCuw-132" vertex="1">
                    <mxGeometry y="30" width="250" height="30" as="geometry"/>
                </mxCell>
                <mxCell id="_-bMv8JtdGMAL5OxYCuw-134" value="PK" style="shape=partialRectangle;overflow=hidden;connectable=0;fillColor=none;top=0;left=0;bottom=0;right=0;fontStyle=1;" parent="_-bMv8JtdGMAL5OxYCuw-133" vertex="1">
                    <mxGeometry width="30" height="30" as="geometry">
                        <mxRectangle width="30" height="30" as="alternateBounds"/>
                    </mxGeometry>
                </mxCell>
                <mxCell id="_-bMv8JtdGMAL5OxYCuw-135" value="game_id" style="shape=partialRectangle;overflow=hidden;connectable=0;fillColor=none;top=0;left=0;bottom=0;right=0;align=left;spacingLeft=6;fontStyle=5;" parent="_-bMv8JtdGMAL5OxYCuw-133" vertex="1">
                    <mxGeometry x="30" width="220" height="30" as="geometry">
                        <mxRectangle width="220" height="30" as="alternateBounds"/>
                    </mxGeometry>
                </mxCell>
                <mxCell id="_-bMv8JtdGMAL5OxYCuw-150" value="" style="shape=partialRectangle;collapsible=0;dropTarget=0;pointerEvents=0;fillColor=none;points=[[0,0.5],[1,0.5]];portConstraint=eastwest;top=0;left=0;right=0;bottom=1;" parent="_-bMv8JtdGMAL5OxYCuw-132" vertex="1">
                    <mxGeometry y="60" width="250" height="30" as="geometry"/>
                </mxCell>
                <mxCell id="_-bMv8JtdGMAL5OxYCuw-151" value="FK" style="shape=partialRectangle;overflow=hidden;connectable=0;fillColor=none;top=0;left=0;bottom=0;right=0;fontStyle=1;" parent="_-bMv8JtdGMAL5OxYCuw-150" vertex="1">
                    <mxGeometry width="30" height="30" as="geometry">
                        <mxRectangle width="30" height="30" as="alternateBounds"/>
                    </mxGeometry>
                </mxCell>
                <mxCell id="_-bMv8JtdGMAL5OxYCuw-152" value="match_id" style="shape=partialRectangle;overflow=hidden;connectable=0;fillColor=none;top=0;left=0;bottom=0;right=0;align=left;spacingLeft=6;fontStyle=5;" parent="_-bMv8JtdGMAL5OxYCuw-150" vertex="1">
                    <mxGeometry x="30" width="220" height="30" as="geometry">
                        <mxRectangle width="220" height="30" as="alternateBounds"/>
                    </mxGeometry>
                </mxCell>
                <mxCell id="_-bMv8JtdGMAL5OxYCuw-136" value="" style="shape=partialRectangle;collapsible=0;dropTarget=0;pointerEvents=0;fillColor=none;points=[[0,0.5],[1,0.5]];portConstraint=eastwest;top=0;left=0;right=0;bottom=0;" parent="_-bMv8JtdGMAL5OxYCuw-132" vertex="1">
                    <mxGeometry y="90" width="250" height="30" as="geometry"/>
                </mxCell>
                <mxCell id="_-bMv8JtdGMAL5OxYCuw-137" value="" style="shape=partialRectangle;overflow=hidden;connectable=0;fillColor=none;top=0;left=0;bottom=0;right=0;" parent="_-bMv8JtdGMAL5OxYCuw-136" vertex="1">
                    <mxGeometry width="30" height="30" as="geometry">
                        <mxRectangle width="30" height="30" as="alternateBounds"/>
                    </mxGeometry>
                </mxCell>
                <mxCell id="_-bMv8JtdGMAL5OxYCuw-138" value="何ゲーム目か" style="shape=partialRectangle;overflow=hidden;connectable=0;fillColor=none;top=0;left=0;bottom=0;right=0;align=left;spacingLeft=6;" parent="_-bMv8JtdGMAL5OxYCuw-136" vertex="1">
                    <mxGeometry x="30" width="220" height="30" as="geometry">
                        <mxRectangle width="220" height="30" as="alternateBounds"/>
                    </mxGeometry>
                </mxCell>
                <mxCell id="_-bMv8JtdGMAL5OxYCuw-66" value="Misses" style="shape=table;startSize=30;container=1;collapsible=1;childLayout=tableLayout;fixedRows=1;rowLines=0;fontStyle=1;align=center;resizeLast=1;" parent="1" vertex="1">
                    <mxGeometry x="1330" y="380" width="250" height="310" as="geometry"/>
                </mxCell>
                <mxCell id="_-bMv8JtdGMAL5OxYCuw-67" value="" style="shape=partialRectangle;collapsible=0;dropTarget=0;pointerEvents=0;fillColor=none;points=[[0,0.5],[1,0.5]];portConstraint=eastwest;top=0;left=0;right=0;bottom=1;" parent="_-bMv8JtdGMAL5OxYCuw-66" vertex="1">
                    <mxGeometry y="30" width="250" height="30" as="geometry"/>
                </mxCell>
                <mxCell id="_-bMv8JtdGMAL5OxYCuw-68" value="PK" style="shape=partialRectangle;overflow=hidden;connectable=0;fillColor=none;top=0;left=0;bottom=0;right=0;fontStyle=1;" parent="_-bMv8JtdGMAL5OxYCuw-67" vertex="1">
                    <mxGeometry width="30" height="30" as="geometry">
                        <mxRectangle width="30" height="30" as="alternateBounds"/>
                    </mxGeometry>
                </mxCell>
                <mxCell id="_-bMv8JtdGMAL5OxYCuw-69" value="miss_id" style="shape=partialRectangle;overflow=hidden;connectable=0;fillColor=none;top=0;left=0;bottom=0;right=0;align=left;spacingLeft=6;fontStyle=5;" parent="_-bMv8JtdGMAL5OxYCuw-67" vertex="1">
                    <mxGeometry x="30" width="220" height="30" as="geometry">
                        <mxRectangle width="220" height="30" as="alternateBounds"/>
                    </mxGeometry>
                </mxCell>
                <mxCell id="_-bMv8JtdGMAL5OxYCuw-70" value="" style="shape=partialRectangle;collapsible=0;dropTarget=0;pointerEvents=0;fillColor=none;points=[[0,0.5],[1,0.5]];portConstraint=eastwest;top=0;left=0;right=0;bottom=0;" parent="_-bMv8JtdGMAL5OxYCuw-66" vertex="1">
                    <mxGeometry y="60" width="250" height="30" as="geometry"/>
                </mxCell>
                <mxCell id="_-bMv8JtdGMAL5OxYCuw-71" value="" style="shape=partialRectangle;overflow=hidden;connectable=0;fillColor=none;top=0;left=0;bottom=0;right=0;" parent="_-bMv8JtdGMAL5OxYCuw-70" vertex="1">
                    <mxGeometry width="30" height="30" as="geometry">
                        <mxRectangle width="30" height="30" as="alternateBounds"/>
                    </mxGeometry>
                </mxCell>
                <mxCell id="_-bMv8JtdGMAL5OxYCuw-72" value="ファーストorセカンド" style="shape=partialRectangle;overflow=hidden;connectable=0;fillColor=none;top=0;left=0;bottom=0;right=0;align=left;spacingLeft=6;" parent="_-bMv8JtdGMAL5OxYCuw-70" vertex="1">
                    <mxGeometry x="30" width="220" height="30" as="geometry">
                        <mxRectangle width="220" height="30" as="alternateBounds"/>
                    </mxGeometry>
                </mxCell>
                <mxCell id="_-bMv8JtdGMAL5OxYCuw-73" value="" style="shape=partialRectangle;collapsible=0;dropTarget=0;pointerEvents=0;fillColor=none;points=[[0,0.5],[1,0.5]];portConstraint=eastwest;top=0;left=0;right=0;bottom=0;" parent="_-bMv8JtdGMAL5OxYCuw-66" vertex="1">
                    <mxGeometry y="90" width="250" height="30" as="geometry"/>
                </mxCell>
                <mxCell id="_-bMv8JtdGMAL5OxYCuw-74" value="" style="shape=partialRectangle;overflow=hidden;connectable=0;fillColor=none;top=0;left=0;bottom=0;right=0;" parent="_-bMv8JtdGMAL5OxYCuw-73" vertex="1">
                    <mxGeometry width="30" height="30" as="geometry">
                        <mxRectangle width="30" height="30" as="alternateBounds"/>
                    </mxGeometry>
                </mxCell>
                <mxCell id="_-bMv8JtdGMAL5OxYCuw-75" value="フォアorバック" style="shape=partialRectangle;overflow=hidden;connectable=0;fillColor=none;top=0;left=0;bottom=0;right=0;align=left;spacingLeft=6;" parent="_-bMv8JtdGMAL5OxYCuw-73" vertex="1">
                    <mxGeometry x="30" width="220" height="30" as="geometry">
                        <mxRectangle width="220" height="30" as="alternateBounds"/>
                    </mxGeometry>
                </mxCell>
                <mxCell id="_-bMv8JtdGMAL5OxYCuw-76" value="" style="shape=partialRectangle;collapsible=0;dropTarget=0;pointerEvents=0;fillColor=none;points=[[0,0.5],[1,0.5]];portConstraint=eastwest;top=0;left=0;right=0;bottom=0;" parent="_-bMv8JtdGMAL5OxYCuw-66" vertex="1">
                    <mxGeometry y="120" width="250" height="30" as="geometry"/>
                </mxCell>
                <mxCell id="_-bMv8JtdGMAL5OxYCuw-77" value="" style="shape=partialRectangle;overflow=hidden;connectable=0;fillColor=none;top=0;left=0;bottom=0;right=0;" parent="_-bMv8JtdGMAL5OxYCuw-76" vertex="1">
                    <mxGeometry width="30" height="30" as="geometry">
                        <mxRectangle width="30" height="30" as="alternateBounds"/>
                    </mxGeometry>
                </mxCell>
                <mxCell id="_-bMv8JtdGMAL5OxYCuw-78" value="球種" style="shape=partialRectangle;overflow=hidden;connectable=0;fillColor=none;top=0;left=0;bottom=0;right=0;align=left;spacingLeft=6;" parent="_-bMv8JtdGMAL5OxYCuw-76" vertex="1">
                    <mxGeometry x="30" width="220" height="30" as="geometry">
                        <mxRectangle width="220" height="30" as="alternateBounds"/>
                    </mxGeometry>
                </mxCell>
                <mxCell id="_-bMv8JtdGMAL5OxYCuw-79" value="" style="shape=partialRectangle;collapsible=0;dropTarget=0;pointerEvents=0;fillColor=none;points=[[0,0.5],[1,0.5]];portConstraint=eastwest;top=0;left=0;right=0;bottom=0;" parent="_-bMv8JtdGMAL5OxYCuw-66" vertex="1">
                    <mxGeometry y="150" width="250" height="30" as="geometry"/>
                </mxCell>
                <mxCell id="_-bMv8JtdGMAL5OxYCuw-80" value="" style="shape=partialRectangle;overflow=hidden;connectable=0;fillColor=none;top=0;left=0;bottom=0;right=0;" parent="_-bMv8JtdGMAL5OxYCuw-79" vertex="1">
                    <mxGeometry width="30" height="30" as="geometry">
                        <mxRectangle width="30" height="30" as="alternateBounds"/>
                    </mxGeometry>
                </mxCell>
                <mxCell id="_-bMv8JtdGMAL5OxYCuw-81" value="打ったコース" style="shape=partialRectangle;overflow=hidden;connectable=0;fillColor=none;top=0;left=0;bottom=0;right=0;align=left;spacingLeft=6;" parent="_-bMv8JtdGMAL5OxYCuw-79" vertex="1">
                    <mxGeometry x="30" width="220" height="30" as="geometry">
                        <mxRectangle width="220" height="30" as="alternateBounds"/>
                    </mxGeometry>
                </mxCell>
                <mxCell id="_-bMv8JtdGMAL5OxYCuw-82" value="" style="shape=partialRectangle;collapsible=0;dropTarget=0;pointerEvents=0;fillColor=none;points=[[0,0.5],[1,0.5]];portConstraint=eastwest;top=0;left=0;right=0;bottom=0;" parent="_-bMv8JtdGMAL5OxYCuw-66" vertex="1">
                    <mxGeometry y="180" width="250" height="30" as="geometry"/>
                </mxCell>
                <mxCell id="_-bMv8JtdGMAL5OxYCuw-83" value="" style="shape=partialRectangle;overflow=hidden;connectable=0;fillColor=none;top=0;left=0;bottom=0;right=0;" parent="_-bMv8JtdGMAL5OxYCuw-82" vertex="1">
                    <mxGeometry width="30" height="30" as="geometry">
                        <mxRectangle width="30" height="30" as="alternateBounds"/>
                    </mxGeometry>
                </mxCell>
                <mxCell id="_-bMv8JtdGMAL5OxYCuw-84" value="ポーチボレーしに行ったコース" style="shape=partialRectangle;overflow=hidden;connectable=0;fillColor=none;top=0;left=0;bottom=0;right=0;align=left;spacingLeft=6;" parent="_-bMv8JtdGMAL5OxYCuw-82" vertex="1">
                    <mxGeometry x="30" width="220" height="30" as="geometry">
                        <mxRectangle width="220" height="30" as="alternateBounds"/>
                    </mxGeometry>
                </mxCell>
                <mxCell id="_-bMv8JtdGMAL5OxYCuw-91" value="" style="shape=partialRectangle;collapsible=0;dropTarget=0;pointerEvents=0;fillColor=none;points=[[0,0.5],[1,0.5]];portConstraint=eastwest;top=0;left=0;right=0;bottom=0;" parent="_-bMv8JtdGMAL5OxYCuw-66" vertex="1">
                    <mxGeometry y="210" width="250" height="30" as="geometry"/>
                </mxCell>
                <mxCell id="_-bMv8JtdGMAL5OxYCuw-92" value="" style="shape=partialRectangle;overflow=hidden;connectable=0;fillColor=none;top=0;left=0;bottom=0;right=0;" parent="_-bMv8JtdGMAL5OxYCuw-91" vertex="1">
                    <mxGeometry width="30" height="30" as="geometry">
                        <mxRectangle width="30" height="30" as="alternateBounds"/>
                    </mxGeometry>
                </mxCell>
                <mxCell id="_-bMv8JtdGMAL5OxYCuw-93" value="どのようにミスしたか" style="shape=partialRectangle;overflow=hidden;connectable=0;fillColor=none;top=0;left=0;bottom=0;right=0;align=left;spacingLeft=6;" parent="_-bMv8JtdGMAL5OxYCuw-91" vertex="1">
                    <mxGeometry x="30" width="220" height="30" as="geometry">
                        <mxRectangle width="220" height="30" as="alternateBounds"/>
                    </mxGeometry>
                </mxCell>
                <mxCell id="_-bMv8JtdGMAL5OxYCuw-85" value="" style="shape=partialRectangle;collapsible=0;dropTarget=0;pointerEvents=0;fillColor=none;points=[[0,0.5],[1,0.5]];portConstraint=eastwest;top=0;left=0;right=0;bottom=0;" parent="_-bMv8JtdGMAL5OxYCuw-66" vertex="1">
                    <mxGeometry y="240" width="250" height="30" as="geometry"/>
                </mxCell>
                <mxCell id="_-bMv8JtdGMAL5OxYCuw-86" value="" style="shape=partialRectangle;overflow=hidden;connectable=0;fillColor=none;top=0;left=0;bottom=0;right=0;" parent="_-bMv8JtdGMAL5OxYCuw-85" vertex="1">
                    <mxGeometry width="30" height="30" as="geometry">
                        <mxRectangle width="30" height="30" as="alternateBounds"/>
                    </mxGeometry>
                </mxCell>
                <mxCell id="_-bMv8JtdGMAL5OxYCuw-87" value="何ラリー目" style="shape=partialRectangle;overflow=hidden;connectable=0;fillColor=none;top=0;left=0;bottom=0;right=0;align=left;spacingLeft=6;" parent="_-bMv8JtdGMAL5OxYCuw-85" vertex="1">
                    <mxGeometry x="30" width="220" height="30" as="geometry">
                        <mxRectangle width="220" height="30" as="alternateBounds"/>
                    </mxGeometry>
                </mxCell>
                <mxCell id="_-bMv8JtdGMAL5OxYCuw-88" value="" style="shape=partialRectangle;collapsible=0;dropTarget=0;pointerEvents=0;fillColor=none;points=[[0,0.5],[1,0.5]];portConstraint=eastwest;top=0;left=0;right=0;bottom=0;" parent="_-bMv8JtdGMAL5OxYCuw-66" vertex="1">
                    <mxGeometry y="270" width="250" height="30" as="geometry"/>
                </mxCell>
                <mxCell id="_-bMv8JtdGMAL5OxYCuw-89" value="" style="shape=partialRectangle;overflow=hidden;connectable=0;fillColor=none;top=0;left=0;bottom=0;right=0;" parent="_-bMv8JtdGMAL5OxYCuw-88" vertex="1">
                    <mxGeometry width="30" height="30" as="geometry">
                        <mxRectangle width="30" height="30" as="alternateBounds"/>
                    </mxGeometry>
                </mxCell>
                <mxCell id="_-bMv8JtdGMAL5OxYCuw-90" value="何ポイント目" style="shape=partialRectangle;overflow=hidden;connectable=0;fillColor=none;top=0;left=0;bottom=0;right=0;align=left;spacingLeft=6;" parent="_-bMv8JtdGMAL5OxYCuw-88" vertex="1">
                    <mxGeometry x="30" width="220" height="30" as="geometry">
                        <mxRectangle width="220" height="30" as="alternateBounds"/>
                    </mxGeometry>
                </mxCell>
                <mxCell id="_-bMv8JtdGMAL5OxYCuw-147" value="" style="edgeStyle=orthogonalEdgeStyle;fontSize=12;html=1;endArrow=ERoneToMany;startArrow=ERmandOne;rounded=0;entryX=0.5;entryY=1;entryDx=0;entryDy=0;exitX=0.5;exitY=0;exitDx=0;exitDy=0;" parent="1" source="C-vyLk0tnHw3VtMMgP7b-2" target="_-bMv8JtdGMAL5OxYCuw-153" edge="1">
                    <mxGeometry width="100" height="100" relative="1" as="geometry">
                        <mxPoint x="1200" y="200" as="sourcePoint"/>
                        <mxPoint x="1570" y="-150" as="targetPoint"/>
                        <Array as="points">
                            <mxPoint x="1035" y="290"/>
                            <mxPoint x="1085" y="290"/>
                        </Array>
                    </mxGeometry>
                </mxCell>
                <mxCell id="_-bMv8JtdGMAL5OxYCuw-148" value="" style="edgeStyle=orthogonalEdgeStyle;fontSize=12;html=1;endArrow=ERoneToMany;startArrow=ERmandOne;rounded=0;entryX=0.5;entryY=1;entryDx=0;entryDy=0;exitX=0.5;exitY=0;exitDx=0;exitDy=0;" parent="1" source="_-bMv8JtdGMAL5OxYCuw-66" target="_-bMv8JtdGMAL5OxYCuw-163" edge="1">
                    <mxGeometry width="100" height="100" relative="1" as="geometry">
                        <mxPoint x="1360" y="340" as="sourcePoint"/>
                        <mxPoint x="1305" y="10" as="targetPoint"/>
                        <Array as="points">
                            <mxPoint x="1455" y="250"/>
                            <mxPoint x="1400" y="250"/>
                        </Array>
                    </mxGeometry>
                </mxCell>
                <mxCell id="_-bMv8JtdGMAL5OxYCuw-149" value="" style="fontSize=12;html=1;endArrow=ERoneToMany;startArrow=ERmandOne;rounded=0;exitX=0.5;exitY=1;exitDx=0;exitDy=0;entryX=0.5;entryY=0;entryDx=0;entryDy=0;" parent="1" source="_-bMv8JtdGMAL5OxYCuw-94" target="_-bMv8JtdGMAL5OxYCuw-132" edge="1">
                    <mxGeometry width="100" height="100" relative="1" as="geometry">
                        <mxPoint x="1490" y="-270" as="sourcePoint"/>
                        <mxPoint x="1390" y="-370" as="targetPoint"/>
                    </mxGeometry>
                </mxCell>
                <mxCell id="_-bMv8JtdGMAL5OxYCuw-153" value="game_points" style="shape=table;startSize=30;container=1;collapsible=1;childLayout=tableLayout;fixedRows=1;rowLines=0;fontStyle=1;align=center;resizeLast=1;" parent="1" vertex="1">
                    <mxGeometry x="960" y="110" width="250" height="100" as="geometry">
                        <mxRectangle x="70" y="120" width="100" height="30" as="alternateBounds"/>
                    </mxGeometry>
                </mxCell>
                <mxCell id="_-bMv8JtdGMAL5OxYCuw-154" value="" style="shape=partialRectangle;collapsible=0;dropTarget=0;pointerEvents=0;fillColor=none;points=[[0,0.5],[1,0.5]];portConstraint=eastwest;top=0;left=0;right=0;bottom=1;" parent="_-bMv8JtdGMAL5OxYCuw-153" vertex="1">
                    <mxGeometry y="30" width="250" height="30" as="geometry"/>
                </mxCell>
                <mxCell id="_-bMv8JtdGMAL5OxYCuw-155" value="PK" style="shape=partialRectangle;overflow=hidden;connectable=0;fillColor=none;top=0;left=0;bottom=0;right=0;fontStyle=1;" parent="_-bMv8JtdGMAL5OxYCuw-154" vertex="1">
                    <mxGeometry width="30" height="30" as="geometry">
                        <mxRectangle width="30" height="30" as="alternateBounds"/>
                    </mxGeometry>
                </mxCell>
                <mxCell id="_-bMv8JtdGMAL5OxYCuw-156" value="game_id" style="shape=partialRectangle;overflow=hidden;connectable=0;fillColor=none;top=0;left=0;bottom=0;right=0;align=left;spacingLeft=6;fontStyle=5;" parent="_-bMv8JtdGMAL5OxYCuw-154" vertex="1">
                    <mxGeometry x="30" width="220" height="30" as="geometry">
                        <mxRectangle width="220" height="30" as="alternateBounds"/>
                    </mxGeometry>
                </mxCell>
                <mxCell id="_-bMv8JtdGMAL5OxYCuw-157" value="" style="shape=partialRectangle;collapsible=0;dropTarget=0;pointerEvents=0;fillColor=none;points=[[0,0.5],[1,0.5]];portConstraint=eastwest;top=0;left=0;right=0;bottom=1;" parent="_-bMv8JtdGMAL5OxYCuw-153" vertex="1">
                    <mxGeometry y="60" width="250" height="30" as="geometry"/>
                </mxCell>
                <mxCell id="_-bMv8JtdGMAL5OxYCuw-158" value="FK" style="shape=partialRectangle;overflow=hidden;connectable=0;fillColor=none;top=0;left=0;bottom=0;right=0;fontStyle=1;" parent="_-bMv8JtdGMAL5OxYCuw-157" vertex="1">
                    <mxGeometry width="30" height="30" as="geometry">
                        <mxRectangle width="30" height="30" as="alternateBounds"/>
                    </mxGeometry>
                </mxCell>
                <mxCell id="_-bMv8JtdGMAL5OxYCuw-159" value="point_id" style="shape=partialRectangle;overflow=hidden;connectable=0;fillColor=none;top=0;left=0;bottom=0;right=0;align=left;spacingLeft=6;fontStyle=5;" parent="_-bMv8JtdGMAL5OxYCuw-157" vertex="1">
                    <mxGeometry x="30" width="220" height="30" as="geometry">
                        <mxRectangle width="220" height="30" as="alternateBounds"/>
                    </mxGeometry>
                </mxCell>
                <mxCell id="_-bMv8JtdGMAL5OxYCuw-163" value="game_misses" style="shape=table;startSize=30;container=1;collapsible=1;childLayout=tableLayout;fixedRows=1;rowLines=0;fontStyle=1;align=center;resizeLast=1;" parent="1" vertex="1">
                    <mxGeometry x="1275" y="110" width="250" height="100" as="geometry">
                        <mxRectangle x="70" y="120" width="100" height="30" as="alternateBounds"/>
                    </mxGeometry>
                </mxCell>
                <mxCell id="_-bMv8JtdGMAL5OxYCuw-164" value="" style="shape=partialRectangle;collapsible=0;dropTarget=0;pointerEvents=0;fillColor=none;points=[[0,0.5],[1,0.5]];portConstraint=eastwest;top=0;left=0;right=0;bottom=1;" parent="_-bMv8JtdGMAL5OxYCuw-163" vertex="1">
                    <mxGeometry y="30" width="250" height="30" as="geometry"/>
                </mxCell>
                <mxCell id="_-bMv8JtdGMAL5OxYCuw-165" value="PK" style="shape=partialRectangle;overflow=hidden;connectable=0;fillColor=none;top=0;left=0;bottom=0;right=0;fontStyle=1;" parent="_-bMv8JtdGMAL5OxYCuw-164" vertex="1">
                    <mxGeometry width="30" height="30" as="geometry">
                        <mxRectangle width="30" height="30" as="alternateBounds"/>
                    </mxGeometry>
                </mxCell>
                <mxCell id="_-bMv8JtdGMAL5OxYCuw-166" value="game_id" style="shape=partialRectangle;overflow=hidden;connectable=0;fillColor=none;top=0;left=0;bottom=0;right=0;align=left;spacingLeft=6;fontStyle=5;" parent="_-bMv8JtdGMAL5OxYCuw-164" vertex="1">
                    <mxGeometry x="30" width="220" height="30" as="geometry">
                        <mxRectangle width="220" height="30" as="alternateBounds"/>
                    </mxGeometry>
                </mxCell>
                <mxCell id="_-bMv8JtdGMAL5OxYCuw-167" value="" style="shape=partialRectangle;collapsible=0;dropTarget=0;pointerEvents=0;fillColor=none;points=[[0,0.5],[1,0.5]];portConstraint=eastwest;top=0;left=0;right=0;bottom=1;" parent="_-bMv8JtdGMAL5OxYCuw-163" vertex="1">
                    <mxGeometry y="60" width="250" height="30" as="geometry"/>
                </mxCell>
                <mxCell id="_-bMv8JtdGMAL5OxYCuw-168" value="FK" style="shape=partialRectangle;overflow=hidden;connectable=0;fillColor=none;top=0;left=0;bottom=0;right=0;fontStyle=1;" parent="_-bMv8JtdGMAL5OxYCuw-167" vertex="1">
                    <mxGeometry width="30" height="30" as="geometry">
                        <mxRectangle width="30" height="30" as="alternateBounds"/>
                    </mxGeometry>
                </mxCell>
                <mxCell id="_-bMv8JtdGMAL5OxYCuw-169" value="point_id" style="shape=partialRectangle;overflow=hidden;connectable=0;fillColor=none;top=0;left=0;bottom=0;right=0;align=left;spacingLeft=6;fontStyle=5;" parent="_-bMv8JtdGMAL5OxYCuw-167" vertex="1">
                    <mxGeometry x="30" width="220" height="30" as="geometry">
                        <mxRectangle width="220" height="30" as="alternateBounds"/>
                    </mxGeometry>
                </mxCell>
                <mxCell id="_-bMv8JtdGMAL5OxYCuw-170" value="" style="edgeStyle=orthogonalEdgeStyle;fontSize=12;html=1;endArrow=ERoneToMany;startArrow=ERmandOne;rounded=0;entryX=0.5;entryY=0;entryDx=0;entryDy=0;exitX=0.5;exitY=1;exitDx=0;exitDy=0;" parent="1" target="_-bMv8JtdGMAL5OxYCuw-153" edge="1">
                    <mxGeometry width="100" height="100" relative="1" as="geometry">
                        <mxPoint x="1200" y="10" as="sourcePoint"/>
                        <mxPoint x="1150" y="180" as="targetPoint"/>
                        <Array as="points">
                            <mxPoint x="1200" y="50"/>
                            <mxPoint x="1085" y="50"/>
                        </Array>
                    </mxGeometry>
                </mxCell>
                <mxCell id="_-bMv8JtdGMAL5OxYCuw-171" value="" style="edgeStyle=orthogonalEdgeStyle;fontSize=12;html=1;endArrow=ERoneToMany;startArrow=ERmandOne;rounded=0;entryX=0.5;entryY=0;entryDx=0;entryDy=0;" parent="1" target="_-bMv8JtdGMAL5OxYCuw-163" edge="1">
                    <mxGeometry width="100" height="100" relative="1" as="geometry">
                        <mxPoint x="1290" y="10" as="sourcePoint"/>
                        <mxPoint x="1095" y="120" as="targetPoint"/>
                        <Array as="points">
                            <mxPoint x="1290" y="60"/>
                            <mxPoint x="1400" y="60"/>
                        </Array>
                    </mxGeometry>
                </mxCell>
            </root>
        </mxGraphModel>
    </diagram>
    <diagram id="IJVAZVYVK3MP4GLnvw0T" name="Page-2">
        <mxGraphModel dx="1774" dy="601" grid="1" gridSize="10" guides="1" tooltips="1" connect="1" arrows="1" fold="1" page="1" pageScale="1" pageWidth="850" pageHeight="1100" math="0" shadow="0">
            <root>
                <mxCell id="0"/>
                <mxCell id="1" parent="0"/>
                <mxCell id="6_USbcZTwtyikpzRYTAM-1" value="games" style="shape=table;startSize=30;container=1;collapsible=1;childLayout=tableLayout;fixedRows=1;rowLines=0;fontStyle=1;align=center;resizeLast=1;rounded=1;" vertex="1" parent="1">
                    <mxGeometry x="300" y="140" width="180" height="120" as="geometry"/>
                </mxCell>
                <mxCell id="6_USbcZTwtyikpzRYTAM-2" value="" style="shape=tableRow;horizontal=0;startSize=0;swimlaneHead=0;swimlaneBody=0;fillColor=none;collapsible=0;dropTarget=0;points=[[0,0.5],[1,0.5]];portConstraint=eastwest;top=0;left=0;right=0;bottom=1;rounded=1;" vertex="1" parent="6_USbcZTwtyikpzRYTAM-1">
                    <mxGeometry y="30" width="180" height="30" as="geometry"/>
                </mxCell>
                <mxCell id="6_USbcZTwtyikpzRYTAM-3" value="PK" style="shape=partialRectangle;connectable=0;fillColor=none;top=0;left=0;bottom=0;right=0;fontStyle=1;overflow=hidden;rounded=1;" vertex="1" parent="6_USbcZTwtyikpzRYTAM-2">
                    <mxGeometry width="30" height="30" as="geometry">
                        <mxRectangle width="30" height="30" as="alternateBounds"/>
                    </mxGeometry>
                </mxCell>
                <mxCell id="6_USbcZTwtyikpzRYTAM-4" value="gameId" style="shape=partialRectangle;connectable=0;fillColor=none;top=0;left=0;bottom=0;right=0;align=left;spacingLeft=6;fontStyle=5;overflow=hidden;rounded=1;" vertex="1" parent="6_USbcZTwtyikpzRYTAM-2">
                    <mxGeometry x="30" width="150" height="30" as="geometry">
                        <mxRectangle width="150" height="30" as="alternateBounds"/>
                    </mxGeometry>
                </mxCell>
                <mxCell id="6_USbcZTwtyikpzRYTAM-20" style="shape=tableRow;horizontal=0;startSize=0;swimlaneHead=0;swimlaneBody=0;fillColor=none;collapsible=0;dropTarget=0;points=[[0,0.5],[1,0.5]];portConstraint=eastwest;top=0;left=0;right=0;bottom=1;rounded=1;" vertex="1" parent="6_USbcZTwtyikpzRYTAM-1">
                    <mxGeometry y="60" width="180" height="30" as="geometry"/>
                </mxCell>
                <mxCell id="6_USbcZTwtyikpzRYTAM-21" value="FK" style="shape=partialRectangle;connectable=0;fillColor=none;top=0;left=0;bottom=0;right=0;fontStyle=1;overflow=hidden;rounded=1;" vertex="1" parent="6_USbcZTwtyikpzRYTAM-20">
                    <mxGeometry width="30" height="30" as="geometry">
                        <mxRectangle width="30" height="30" as="alternateBounds"/>
                    </mxGeometry>
                </mxCell>
                <mxCell id="6_USbcZTwtyikpzRYTAM-22" value="matchId" style="shape=partialRectangle;connectable=0;fillColor=none;top=0;left=0;bottom=0;right=0;align=left;spacingLeft=6;fontStyle=5;overflow=hidden;rounded=1;" vertex="1" parent="6_USbcZTwtyikpzRYTAM-20">
                    <mxGeometry x="30" width="150" height="30" as="geometry">
                        <mxRectangle width="150" height="30" as="alternateBounds"/>
                    </mxGeometry>
                </mxCell>
                <mxCell id="6_USbcZTwtyikpzRYTAM-17" style="shape=tableRow;horizontal=0;startSize=0;swimlaneHead=0;swimlaneBody=0;fillColor=none;collapsible=0;dropTarget=0;points=[[0,0.5],[1,0.5]];portConstraint=eastwest;top=0;left=0;right=0;bottom=0;rounded=1;" vertex="1" parent="6_USbcZTwtyikpzRYTAM-1">
                    <mxGeometry y="90" width="180" height="30" as="geometry"/>
                </mxCell>
                <mxCell id="6_USbcZTwtyikpzRYTAM-18" style="shape=partialRectangle;connectable=0;fillColor=none;top=0;left=0;bottom=0;right=0;editable=1;overflow=hidden;rounded=1;" vertex="1" parent="6_USbcZTwtyikpzRYTAM-17">
                    <mxGeometry width="30" height="30" as="geometry">
                        <mxRectangle width="30" height="30" as="alternateBounds"/>
                    </mxGeometry>
                </mxCell>
                <mxCell id="6_USbcZTwtyikpzRYTAM-19" value="gameNo" style="shape=partialRectangle;connectable=0;fillColor=none;top=0;left=0;bottom=0;right=0;align=left;spacingLeft=6;overflow=hidden;rounded=1;" vertex="1" parent="6_USbcZTwtyikpzRYTAM-17">
                    <mxGeometry x="30" width="150" height="30" as="geometry">
                        <mxRectangle width="150" height="30" as="alternateBounds"/>
                    </mxGeometry>
                </mxCell>
                <mxCell id="6_USbcZTwtyikpzRYTAM-23" value="matches" style="shape=table;startSize=30;container=1;collapsible=1;childLayout=tableLayout;fixedRows=1;rowLines=0;fontStyle=1;align=center;resizeLast=1;rounded=1;" vertex="1" parent="1">
                    <mxGeometry x="10" y="170" width="180" height="120" as="geometry"/>
                </mxCell>
                <mxCell id="6_USbcZTwtyikpzRYTAM-24" value="" style="shape=tableRow;horizontal=0;startSize=0;swimlaneHead=0;swimlaneBody=0;fillColor=none;collapsible=0;dropTarget=0;points=[[0,0.5],[1,0.5]];portConstraint=eastwest;top=0;left=0;right=0;bottom=1;rounded=1;" vertex="1" parent="6_USbcZTwtyikpzRYTAM-23">
                    <mxGeometry y="30" width="180" height="30" as="geometry"/>
                </mxCell>
                <mxCell id="6_USbcZTwtyikpzRYTAM-25" value="PK" style="shape=partialRectangle;connectable=0;fillColor=none;top=0;left=0;bottom=0;right=0;fontStyle=1;overflow=hidden;rounded=1;" vertex="1" parent="6_USbcZTwtyikpzRYTAM-24">
                    <mxGeometry width="30" height="30" as="geometry">
                        <mxRectangle width="30" height="30" as="alternateBounds"/>
                    </mxGeometry>
                </mxCell>
                <mxCell id="6_USbcZTwtyikpzRYTAM-26" value="matcheId" style="shape=partialRectangle;connectable=0;fillColor=none;top=0;left=0;bottom=0;right=0;align=left;spacingLeft=6;fontStyle=5;overflow=hidden;rounded=1;" vertex="1" parent="6_USbcZTwtyikpzRYTAM-24">
                    <mxGeometry x="30" width="150" height="30" as="geometry">
                        <mxRectangle width="150" height="30" as="alternateBounds"/>
                    </mxGeometry>
                </mxCell>
                <mxCell id="6_USbcZTwtyikpzRYTAM-30" style="shape=tableRow;horizontal=0;startSize=0;swimlaneHead=0;swimlaneBody=0;fillColor=none;collapsible=0;dropTarget=0;points=[[0,0.5],[1,0.5]];portConstraint=eastwest;top=0;left=0;right=0;bottom=0;rounded=1;" vertex="1" parent="6_USbcZTwtyikpzRYTAM-23">
                    <mxGeometry y="60" width="180" height="30" as="geometry"/>
                </mxCell>
                <mxCell id="6_USbcZTwtyikpzRYTAM-31" style="shape=partialRectangle;connectable=0;fillColor=none;top=0;left=0;bottom=0;right=0;editable=1;overflow=hidden;rounded=1;" vertex="1" parent="6_USbcZTwtyikpzRYTAM-30">
                    <mxGeometry width="30" height="30" as="geometry">
                        <mxRectangle width="30" height="30" as="alternateBounds"/>
                    </mxGeometry>
                </mxCell>
                <mxCell id="6_USbcZTwtyikpzRYTAM-32" value="date" style="shape=partialRectangle;connectable=0;fillColor=none;top=0;left=0;bottom=0;right=0;align=left;spacingLeft=6;overflow=hidden;rounded=1;" vertex="1" parent="6_USbcZTwtyikpzRYTAM-30">
                    <mxGeometry x="30" width="150" height="30" as="geometry">
                        <mxRectangle width="150" height="30" as="alternateBounds"/>
                    </mxGeometry>
                </mxCell>
                <mxCell id="6_USbcZTwtyikpzRYTAM-33" style="shape=tableRow;horizontal=0;startSize=0;swimlaneHead=0;swimlaneBody=0;fillColor=none;collapsible=0;dropTarget=0;points=[[0,0.5],[1,0.5]];portConstraint=eastwest;top=0;left=0;right=0;bottom=0;rounded=1;" vertex="1" parent="6_USbcZTwtyikpzRYTAM-23">
                    <mxGeometry y="90" width="180" height="30" as="geometry"/>
                </mxCell>
                <mxCell id="6_USbcZTwtyikpzRYTAM-34" style="shape=partialRectangle;connectable=0;fillColor=none;top=0;left=0;bottom=0;right=0;editable=1;overflow=hidden;rounded=1;" vertex="1" parent="6_USbcZTwtyikpzRYTAM-33">
                    <mxGeometry width="30" height="30" as="geometry">
                        <mxRectangle width="30" height="30" as="alternateBounds"/>
                    </mxGeometry>
                </mxCell>
                <mxCell id="6_USbcZTwtyikpzRYTAM-35" style="shape=partialRectangle;connectable=0;fillColor=none;top=0;left=0;bottom=0;right=0;align=left;spacingLeft=6;overflow=hidden;rounded=1;" vertex="1" parent="6_USbcZTwtyikpzRYTAM-33">
                    <mxGeometry x="30" width="150" height="30" as="geometry">
                        <mxRectangle width="150" height="30" as="alternateBounds"/>
                    </mxGeometry>
                </mxCell>
                <mxCell id="6_USbcZTwtyikpzRYTAM-36" style="edgeStyle=none;html=1;exitX=1;exitY=0.5;exitDx=0;exitDy=0;entryX=0;entryY=0.5;entryDx=0;entryDy=0;startArrow=ERone;startFill=0;endArrow=ERzeroToMany;endFill=0;" edge="1" parent="1" source="6_USbcZTwtyikpzRYTAM-24" target="6_USbcZTwtyikpzRYTAM-20">
                    <mxGeometry relative="1" as="geometry"/>
                </mxCell>
                <mxCell id="6_USbcZTwtyikpzRYTAM-37" value="PointOrMiss" style="shape=table;startSize=30;container=1;collapsible=1;childLayout=tableLayout;fixedRows=1;rowLines=0;fontStyle=1;align=center;resizeLast=1;" vertex="1" parent="1">
                    <mxGeometry x="238" y="420" width="320" height="210" as="geometry"/>
                </mxCell>
                <mxCell id="6_USbcZTwtyikpzRYTAM-38" value="" style="shape=tableRow;horizontal=0;startSize=0;swimlaneHead=0;swimlaneBody=0;fillColor=none;collapsible=0;dropTarget=0;points=[[0,0.5],[1,0.5]];portConstraint=eastwest;top=0;left=0;right=0;bottom=1;" vertex="1" parent="6_USbcZTwtyikpzRYTAM-37">
                    <mxGeometry y="30" width="320" height="30" as="geometry"/>
                </mxCell>
                <mxCell id="6_USbcZTwtyikpzRYTAM-39" value="PK,FK" style="shape=partialRectangle;connectable=0;fillColor=none;top=0;left=0;bottom=0;right=0;fontStyle=1;overflow=hidden;" vertex="1" parent="6_USbcZTwtyikpzRYTAM-38">
                    <mxGeometry width="50" height="30" as="geometry">
                        <mxRectangle width="50" height="30" as="alternateBounds"/>
                    </mxGeometry>
                </mxCell>
                <mxCell id="6_USbcZTwtyikpzRYTAM-40" value="gameId" style="shape=partialRectangle;connectable=0;fillColor=none;top=0;left=0;bottom=0;right=0;align=left;spacingLeft=6;fontStyle=5;overflow=hidden;" vertex="1" parent="6_USbcZTwtyikpzRYTAM-38">
                    <mxGeometry x="50" width="270" height="30" as="geometry">
                        <mxRectangle width="270" height="30" as="alternateBounds"/>
                    </mxGeometry>
                </mxCell>
                <mxCell id="6_USbcZTwtyikpzRYTAM-50" style="shape=tableRow;horizontal=0;startSize=0;swimlaneHead=0;swimlaneBody=0;fillColor=none;collapsible=0;dropTarget=0;points=[[0,0.5],[1,0.5]];portConstraint=eastwest;top=0;left=0;right=0;bottom=1;" vertex="1" parent="6_USbcZTwtyikpzRYTAM-37">
                    <mxGeometry y="60" width="320" height="30" as="geometry"/>
                </mxCell>
                <mxCell id="6_USbcZTwtyikpzRYTAM-51" value="PK" style="shape=partialRectangle;connectable=0;fillColor=none;top=0;left=0;bottom=0;right=0;fontStyle=1;overflow=hidden;" vertex="1" parent="6_USbcZTwtyikpzRYTAM-50">
                    <mxGeometry width="50" height="30" as="geometry">
                        <mxRectangle width="50" height="30" as="alternateBounds"/>
                    </mxGeometry>
                </mxCell>
                <mxCell id="6_USbcZTwtyikpzRYTAM-52" value="pointOrMissNo" style="shape=partialRectangle;connectable=0;fillColor=none;top=0;left=0;bottom=0;right=0;align=left;spacingLeft=6;fontStyle=5;overflow=hidden;" vertex="1" parent="6_USbcZTwtyikpzRYTAM-50">
                    <mxGeometry x="50" width="270" height="30" as="geometry">
                        <mxRectangle width="270" height="30" as="alternateBounds"/>
                    </mxGeometry>
                </mxCell>
                <mxCell id="6_USbcZTwtyikpzRYTAM-41" value="" style="shape=tableRow;horizontal=0;startSize=0;swimlaneHead=0;swimlaneBody=0;fillColor=none;collapsible=0;dropTarget=0;points=[[0,0.5],[1,0.5]];portConstraint=eastwest;top=0;left=0;right=0;bottom=0;" vertex="1" parent="6_USbcZTwtyikpzRYTAM-37">
                    <mxGeometry y="90" width="320" height="30" as="geometry"/>
                </mxCell>
                <mxCell id="6_USbcZTwtyikpzRYTAM-42" value="" style="shape=partialRectangle;connectable=0;fillColor=none;top=0;left=0;bottom=0;right=0;editable=1;overflow=hidden;" vertex="1" parent="6_USbcZTwtyikpzRYTAM-41">
                    <mxGeometry width="50" height="30" as="geometry">
                        <mxRectangle width="50" height="30" as="alternateBounds"/>
                    </mxGeometry>
                </mxCell>
                <mxCell id="6_USbcZTwtyikpzRYTAM-43" value="playerId" style="shape=partialRectangle;connectable=0;fillColor=none;top=0;left=0;bottom=0;right=0;align=left;spacingLeft=6;overflow=hidden;" vertex="1" parent="6_USbcZTwtyikpzRYTAM-41">
                    <mxGeometry x="50" width="270" height="30" as="geometry">
                        <mxRectangle width="270" height="30" as="alternateBounds"/>
                    </mxGeometry>
                </mxCell>
                <mxCell id="6_USbcZTwtyikpzRYTAM-44" value="" style="shape=tableRow;horizontal=0;startSize=0;swimlaneHead=0;swimlaneBody=0;fillColor=none;collapsible=0;dropTarget=0;points=[[0,0.5],[1,0.5]];portConstraint=eastwest;top=0;left=0;right=0;bottom=0;" vertex="1" parent="6_USbcZTwtyikpzRYTAM-37">
                    <mxGeometry y="120" width="320" height="30" as="geometry"/>
                </mxCell>
                <mxCell id="6_USbcZTwtyikpzRYTAM-45" value="" style="shape=partialRectangle;connectable=0;fillColor=none;top=0;left=0;bottom=0;right=0;editable=1;overflow=hidden;" vertex="1" parent="6_USbcZTwtyikpzRYTAM-44">
                    <mxGeometry width="50" height="30" as="geometry">
                        <mxRectangle width="50" height="30" as="alternateBounds"/>
                    </mxGeometry>
                </mxCell>
                <mxCell id="6_USbcZTwtyikpzRYTAM-46" value="isPoint" style="shape=partialRectangle;connectable=0;fillColor=none;top=0;left=0;bottom=0;right=0;align=left;spacingLeft=6;overflow=hidden;" vertex="1" parent="6_USbcZTwtyikpzRYTAM-44">
                    <mxGeometry x="50" width="270" height="30" as="geometry">
                        <mxRectangle width="270" height="30" as="alternateBounds"/>
                    </mxGeometry>
                </mxCell>
                <mxCell id="6_USbcZTwtyikpzRYTAM-53" style="shape=tableRow;horizontal=0;startSize=0;swimlaneHead=0;swimlaneBody=0;fillColor=none;collapsible=0;dropTarget=0;points=[[0,0.5],[1,0.5]];portConstraint=eastwest;top=0;left=0;right=0;bottom=0;" vertex="1" parent="6_USbcZTwtyikpzRYTAM-37">
                    <mxGeometry y="150" width="320" height="30" as="geometry"/>
                </mxCell>
                <mxCell id="6_USbcZTwtyikpzRYTAM-54" style="shape=partialRectangle;connectable=0;fillColor=none;top=0;left=0;bottom=0;right=0;editable=1;overflow=hidden;" vertex="1" parent="6_USbcZTwtyikpzRYTAM-53">
                    <mxGeometry width="50" height="30" as="geometry">
                        <mxRectangle width="50" height="30" as="alternateBounds"/>
                    </mxGeometry>
                </mxCell>
                <mxCell id="6_USbcZTwtyikpzRYTAM-55" value="ポイントやミスのそれぞれのプロパティ" style="shape=partialRectangle;connectable=0;fillColor=none;top=0;left=0;bottom=0;right=0;align=left;spacingLeft=6;overflow=hidden;" vertex="1" parent="6_USbcZTwtyikpzRYTAM-53">
                    <mxGeometry x="50" width="270" height="30" as="geometry">
                        <mxRectangle width="270" height="30" as="alternateBounds"/>
                    </mxGeometry>
                </mxCell>
                <mxCell id="6_USbcZTwtyikpzRYTAM-47" value="" style="shape=tableRow;horizontal=0;startSize=0;swimlaneHead=0;swimlaneBody=0;fillColor=none;collapsible=0;dropTarget=0;points=[[0,0.5],[1,0.5]];portConstraint=eastwest;top=0;left=0;right=0;bottom=0;" vertex="1" parent="6_USbcZTwtyikpzRYTAM-37">
                    <mxGeometry y="180" width="320" height="30" as="geometry"/>
                </mxCell>
                <mxCell id="6_USbcZTwtyikpzRYTAM-48" value="" style="shape=partialRectangle;connectable=0;fillColor=none;top=0;left=0;bottom=0;right=0;editable=1;overflow=hidden;" vertex="1" parent="6_USbcZTwtyikpzRYTAM-47">
                    <mxGeometry width="50" height="30" as="geometry">
                        <mxRectangle width="50" height="30" as="alternateBounds"/>
                    </mxGeometry>
                </mxCell>
                <mxCell id="6_USbcZTwtyikpzRYTAM-49" value="(省略)" style="shape=partialRectangle;connectable=0;fillColor=none;top=0;left=0;bottom=0;right=0;align=left;spacingLeft=6;overflow=hidden;" vertex="1" parent="6_USbcZTwtyikpzRYTAM-47">
                    <mxGeometry x="50" width="270" height="30" as="geometry">
                        <mxRectangle width="270" height="30" as="alternateBounds"/>
                    </mxGeometry>
                </mxCell>
                <mxCell id="6_USbcZTwtyikpzRYTAM-56" style="edgeStyle=none;html=1;exitX=1;exitY=0.5;exitDx=0;exitDy=0;entryX=0;entryY=0.5;entryDx=0;entryDy=0;startArrow=ERone;startFill=0;endArrow=ERzeroToMany;endFill=0;" edge="1" parent="1" source="6_USbcZTwtyikpzRYTAM-2" target="6_USbcZTwtyikpzRYTAM-38">
                    <mxGeometry relative="1" as="geometry">
                        <Array as="points">
                            <mxPoint x="530" y="185"/>
                            <mxPoint x="530" y="320"/>
                            <mxPoint x="200" y="320"/>
                            <mxPoint x="200" y="465"/>
                        </Array>
                    </mxGeometry>
                </mxCell>
                <mxCell id="6_USbcZTwtyikpzRYTAM-57" value="players" style="shape=table;startSize=30;container=1;collapsible=1;childLayout=tableLayout;fixedRows=1;rowLines=0;fontStyle=1;align=center;resizeLast=1;rounded=1;" vertex="1" parent="1">
                    <mxGeometry x="-299" y="716" width="180" height="120" as="geometry"/>
                </mxCell>
                <mxCell id="6_USbcZTwtyikpzRYTAM-58" value="" style="shape=tableRow;horizontal=0;startSize=0;swimlaneHead=0;swimlaneBody=0;fillColor=none;collapsible=0;dropTarget=0;points=[[0,0.5],[1,0.5]];portConstraint=eastwest;top=0;left=0;right=0;bottom=1;rounded=1;" vertex="1" parent="6_USbcZTwtyikpzRYTAM-57">
                    <mxGeometry y="30" width="180" height="30" as="geometry"/>
                </mxCell>
                <mxCell id="6_USbcZTwtyikpzRYTAM-59" value="PK" style="shape=partialRectangle;connectable=0;fillColor=none;top=0;left=0;bottom=0;right=0;fontStyle=1;overflow=hidden;rounded=1;" vertex="1" parent="6_USbcZTwtyikpzRYTAM-58">
                    <mxGeometry width="30" height="30" as="geometry">
                        <mxRectangle width="30" height="30" as="alternateBounds"/>
                    </mxGeometry>
                </mxCell>
                <mxCell id="6_USbcZTwtyikpzRYTAM-60" value="playerId" style="shape=partialRectangle;connectable=0;fillColor=none;top=0;left=0;bottom=0;right=0;align=left;spacingLeft=6;fontStyle=5;overflow=hidden;rounded=1;" vertex="1" parent="6_USbcZTwtyikpzRYTAM-58">
                    <mxGeometry x="30" width="150" height="30" as="geometry">
                        <mxRectangle width="150" height="30" as="alternateBounds"/>
                    </mxGeometry>
                </mxCell>
                <mxCell id="6_USbcZTwtyikpzRYTAM-61" style="shape=tableRow;horizontal=0;startSize=0;swimlaneHead=0;swimlaneBody=0;fillColor=none;collapsible=0;dropTarget=0;points=[[0,0.5],[1,0.5]];portConstraint=eastwest;top=0;left=0;right=0;bottom=0;rounded=1;" vertex="1" parent="6_USbcZTwtyikpzRYTAM-57">
                    <mxGeometry y="60" width="180" height="30" as="geometry"/>
                </mxCell>
                <mxCell id="6_USbcZTwtyikpzRYTAM-62" style="shape=partialRectangle;connectable=0;fillColor=none;top=0;left=0;bottom=0;right=0;editable=1;overflow=hidden;rounded=1;" vertex="1" parent="6_USbcZTwtyikpzRYTAM-61">
                    <mxGeometry width="30" height="30" as="geometry">
                        <mxRectangle width="30" height="30" as="alternateBounds"/>
                    </mxGeometry>
                </mxCell>
                <mxCell id="6_USbcZTwtyikpzRYTAM-63" value="name" style="shape=partialRectangle;connectable=0;fillColor=none;top=0;left=0;bottom=0;right=0;align=left;spacingLeft=6;overflow=hidden;rounded=1;" vertex="1" parent="6_USbcZTwtyikpzRYTAM-61">
                    <mxGeometry x="30" width="150" height="30" as="geometry">
                        <mxRectangle width="150" height="30" as="alternateBounds"/>
                    </mxGeometry>
                </mxCell>
                <mxCell id="6_USbcZTwtyikpzRYTAM-64" style="shape=tableRow;horizontal=0;startSize=0;swimlaneHead=0;swimlaneBody=0;fillColor=none;collapsible=0;dropTarget=0;points=[[0,0.5],[1,0.5]];portConstraint=eastwest;top=0;left=0;right=0;bottom=0;rounded=1;" vertex="1" parent="6_USbcZTwtyikpzRYTAM-57">
                    <mxGeometry y="90" width="180" height="30" as="geometry"/>
                </mxCell>
                <mxCell id="6_USbcZTwtyikpzRYTAM-65" style="shape=partialRectangle;connectable=0;fillColor=none;top=0;left=0;bottom=0;right=0;editable=1;overflow=hidden;rounded=1;" vertex="1" parent="6_USbcZTwtyikpzRYTAM-64">
                    <mxGeometry width="30" height="30" as="geometry">
                        <mxRectangle width="30" height="30" as="alternateBounds"/>
                    </mxGeometry>
                </mxCell>
                <mxCell id="6_USbcZTwtyikpzRYTAM-66" style="shape=partialRectangle;connectable=0;fillColor=none;top=0;left=0;bottom=0;right=0;align=left;spacingLeft=6;overflow=hidden;rounded=1;" vertex="1" parent="6_USbcZTwtyikpzRYTAM-64">
                    <mxGeometry x="30" width="150" height="30" as="geometry">
                        <mxRectangle width="150" height="30" as="alternateBounds"/>
                    </mxGeometry>
                </mxCell>
                <mxCell id="6_USbcZTwtyikpzRYTAM-67" value="gamePlayers" style="shape=table;startSize=30;container=1;collapsible=1;childLayout=tableLayout;fixedRows=1;rowLines=0;fontStyle=1;align=center;resizeLast=1;rounded=1;" vertex="1" parent="1">
                    <mxGeometry x="-50" y="350" width="180" height="150" as="geometry"/>
                </mxCell>
                <mxCell id="6_USbcZTwtyikpzRYTAM-77" style="shape=tableRow;horizontal=0;startSize=0;swimlaneHead=0;swimlaneBody=0;fillColor=none;collapsible=0;dropTarget=0;points=[[0,0.5],[1,0.5]];portConstraint=eastwest;top=0;left=0;right=0;bottom=1;rounded=1;" vertex="1" parent="6_USbcZTwtyikpzRYTAM-67">
                    <mxGeometry y="30" width="180" height="30" as="geometry"/>
                </mxCell>
                <mxCell id="6_USbcZTwtyikpzRYTAM-78" value="PK" style="shape=partialRectangle;connectable=0;fillColor=none;top=0;left=0;bottom=0;right=0;fontStyle=1;overflow=hidden;rounded=1;" vertex="1" parent="6_USbcZTwtyikpzRYTAM-77">
                    <mxGeometry width="30" height="30" as="geometry">
                        <mxRectangle width="30" height="30" as="alternateBounds"/>
                    </mxGeometry>
                </mxCell>
                <mxCell id="6_USbcZTwtyikpzRYTAM-79" value="matchId" style="shape=partialRectangle;connectable=0;fillColor=none;top=0;left=0;bottom=0;right=0;align=left;spacingLeft=6;fontStyle=5;overflow=hidden;rounded=1;" vertex="1" parent="6_USbcZTwtyikpzRYTAM-77">
                    <mxGeometry x="30" width="150" height="30" as="geometry">
                        <mxRectangle width="150" height="30" as="alternateBounds"/>
                    </mxGeometry>
                </mxCell>
                <mxCell id="6_USbcZTwtyikpzRYTAM-68" value="" style="shape=tableRow;horizontal=0;startSize=0;swimlaneHead=0;swimlaneBody=0;fillColor=none;collapsible=0;dropTarget=0;points=[[0,0.5],[1,0.5]];portConstraint=eastwest;top=0;left=0;right=0;bottom=1;rounded=1;" vertex="1" parent="6_USbcZTwtyikpzRYTAM-67">
                    <mxGeometry y="60" width="180" height="30" as="geometry"/>
                </mxCell>
                <mxCell id="6_USbcZTwtyikpzRYTAM-69" value="PK" style="shape=partialRectangle;connectable=0;fillColor=none;top=0;left=0;bottom=0;right=0;fontStyle=1;overflow=hidden;rounded=1;" vertex="1" parent="6_USbcZTwtyikpzRYTAM-68">
                    <mxGeometry width="30" height="30" as="geometry">
                        <mxRectangle width="30" height="30" as="alternateBounds"/>
                    </mxGeometry>
                </mxCell>
                <mxCell id="6_USbcZTwtyikpzRYTAM-70" value="playerNo(1～4)" style="shape=partialRectangle;connectable=0;fillColor=none;top=0;left=0;bottom=0;right=0;align=left;spacingLeft=6;fontStyle=5;overflow=hidden;rounded=1;" vertex="1" parent="6_USbcZTwtyikpzRYTAM-68">
                    <mxGeometry x="30" width="150" height="30" as="geometry">
                        <mxRectangle width="150" height="30" as="alternateBounds"/>
                    </mxGeometry>
                </mxCell>
                <mxCell id="6_USbcZTwtyikpzRYTAM-71" style="shape=tableRow;horizontal=0;startSize=0;swimlaneHead=0;swimlaneBody=0;fillColor=none;collapsible=0;dropTarget=0;points=[[0,0.5],[1,0.5]];portConstraint=eastwest;top=0;left=0;right=0;bottom=0;rounded=1;" vertex="1" parent="6_USbcZTwtyikpzRYTAM-67">
                    <mxGeometry y="90" width="180" height="30" as="geometry"/>
                </mxCell>
                <mxCell id="6_USbcZTwtyikpzRYTAM-72" style="shape=partialRectangle;connectable=0;fillColor=none;top=0;left=0;bottom=0;right=0;editable=1;overflow=hidden;rounded=1;" vertex="1" parent="6_USbcZTwtyikpzRYTAM-71">
                    <mxGeometry width="30" height="30" as="geometry">
                        <mxRectangle width="30" height="30" as="alternateBounds"/>
                    </mxGeometry>
                </mxCell>
                <mxCell id="6_USbcZTwtyikpzRYTAM-73" value="playerId" style="shape=partialRectangle;connectable=0;fillColor=none;top=0;left=0;bottom=0;right=0;align=left;spacingLeft=6;overflow=hidden;rounded=1;" vertex="1" parent="6_USbcZTwtyikpzRYTAM-71">
                    <mxGeometry x="30" width="150" height="30" as="geometry">
                        <mxRectangle width="150" height="30" as="alternateBounds"/>
                    </mxGeometry>
                </mxCell>
                <mxCell id="6_USbcZTwtyikpzRYTAM-74" style="shape=tableRow;horizontal=0;startSize=0;swimlaneHead=0;swimlaneBody=0;fillColor=none;collapsible=0;dropTarget=0;points=[[0,0.5],[1,0.5]];portConstraint=eastwest;top=0;left=0;right=0;bottom=0;rounded=1;" vertex="1" parent="6_USbcZTwtyikpzRYTAM-67">
                    <mxGeometry y="120" width="180" height="30" as="geometry"/>
                </mxCell>
                <mxCell id="6_USbcZTwtyikpzRYTAM-75" style="shape=partialRectangle;connectable=0;fillColor=none;top=0;left=0;bottom=0;right=0;editable=1;overflow=hidden;rounded=1;" vertex="1" parent="6_USbcZTwtyikpzRYTAM-74">
                    <mxGeometry width="30" height="30" as="geometry">
                        <mxRectangle width="30" height="30" as="alternateBounds"/>
                    </mxGeometry>
                </mxCell>
                <mxCell id="6_USbcZTwtyikpzRYTAM-76" style="shape=partialRectangle;connectable=0;fillColor=none;top=0;left=0;bottom=0;right=0;align=left;spacingLeft=6;overflow=hidden;rounded=1;" vertex="1" parent="6_USbcZTwtyikpzRYTAM-74">
                    <mxGeometry x="30" width="150" height="30" as="geometry">
                        <mxRectangle width="150" height="30" as="alternateBounds"/>
                    </mxGeometry>
                </mxCell>
                <mxCell id="6_USbcZTwtyikpzRYTAM-80" value="serves" style="shape=table;startSize=30;container=1;collapsible=1;childLayout=tableLayout;fixedRows=1;rowLines=0;fontStyle=1;align=center;resizeLast=1;rounded=1;" vertex="1" parent="1">
                    <mxGeometry x="-299" y="140" width="180" height="140" as="geometry"/>
                </mxCell>
                <mxCell id="6_USbcZTwtyikpzRYTAM-93" style="shape=tableRow;horizontal=0;startSize=0;swimlaneHead=0;swimlaneBody=0;fillColor=none;collapsible=0;dropTarget=0;points=[[0,0.5],[1,0.5]];portConstraint=eastwest;top=0;left=0;right=0;bottom=1;rounded=1;" vertex="1" parent="6_USbcZTwtyikpzRYTAM-80">
                    <mxGeometry y="30" width="180" height="30" as="geometry"/>
                </mxCell>
                <mxCell id="6_USbcZTwtyikpzRYTAM-94" value="PK" style="shape=partialRectangle;connectable=0;fillColor=none;top=0;left=0;bottom=0;right=0;fontStyle=1;overflow=hidden;rounded=1;" vertex="1" parent="6_USbcZTwtyikpzRYTAM-93">
                    <mxGeometry width="30" height="30" as="geometry">
                        <mxRectangle width="30" height="30" as="alternateBounds"/>
                    </mxGeometry>
                </mxCell>
                <mxCell id="6_USbcZTwtyikpzRYTAM-95" value="serveId" style="shape=partialRectangle;connectable=0;fillColor=none;top=0;left=0;bottom=0;right=0;align=left;spacingLeft=6;fontStyle=5;overflow=hidden;rounded=1;" vertex="1" parent="6_USbcZTwtyikpzRYTAM-93">
                    <mxGeometry x="30" width="150" height="30" as="geometry">
                        <mxRectangle width="150" height="30" as="alternateBounds"/>
                    </mxGeometry>
                </mxCell>
                <mxCell id="6_USbcZTwtyikpzRYTAM-81" value="" style="shape=tableRow;horizontal=0;startSize=0;swimlaneHead=0;swimlaneBody=0;fillColor=none;collapsible=0;dropTarget=0;points=[[0,0.5],[1,0.5]];portConstraint=eastwest;top=0;left=0;right=0;bottom=1;rounded=1;" vertex="1" parent="6_USbcZTwtyikpzRYTAM-80">
                    <mxGeometry y="60" width="180" height="30" as="geometry"/>
                </mxCell>
                <mxCell id="6_USbcZTwtyikpzRYTAM-82" value="FK" style="shape=partialRectangle;connectable=0;fillColor=none;top=0;left=0;bottom=0;right=0;fontStyle=1;overflow=hidden;rounded=1;" vertex="1" parent="6_USbcZTwtyikpzRYTAM-81">
                    <mxGeometry width="30" height="30" as="geometry">
                        <mxRectangle width="30" height="30" as="alternateBounds"/>
                    </mxGeometry>
                </mxCell>
                <mxCell id="6_USbcZTwtyikpzRYTAM-83" value="matcheId" style="shape=partialRectangle;connectable=0;fillColor=none;top=0;left=0;bottom=0;right=0;align=left;spacingLeft=6;fontStyle=5;overflow=hidden;rounded=1;" vertex="1" parent="6_USbcZTwtyikpzRYTAM-81">
                    <mxGeometry x="30" width="150" height="30" as="geometry">
                        <mxRectangle width="150" height="30" as="alternateBounds"/>
                    </mxGeometry>
                </mxCell>
                <mxCell id="6_USbcZTwtyikpzRYTAM-84" style="shape=tableRow;horizontal=0;startSize=0;swimlaneHead=0;swimlaneBody=0;fillColor=none;collapsible=0;dropTarget=0;points=[[0,0.5],[1,0.5]];portConstraint=eastwest;top=0;left=0;right=0;bottom=0;rounded=1;" vertex="1" parent="6_USbcZTwtyikpzRYTAM-80">
                    <mxGeometry y="90" width="180" height="20" as="geometry"/>
                </mxCell>
                <mxCell id="6_USbcZTwtyikpzRYTAM-85" style="shape=partialRectangle;connectable=0;fillColor=none;top=0;left=0;bottom=0;right=0;editable=1;overflow=hidden;rounded=1;" vertex="1" parent="6_USbcZTwtyikpzRYTAM-84">
                    <mxGeometry width="30" height="20" as="geometry">
                        <mxRectangle width="30" height="20" as="alternateBounds"/>
                    </mxGeometry>
                </mxCell>
                <mxCell id="6_USbcZTwtyikpzRYTAM-86" value="playerId" style="shape=partialRectangle;connectable=0;fillColor=none;top=0;left=0;bottom=0;right=0;align=left;spacingLeft=6;overflow=hidden;rounded=1;" vertex="1" parent="6_USbcZTwtyikpzRYTAM-84">
                    <mxGeometry x="30" width="150" height="20" as="geometry">
                        <mxRectangle width="150" height="20" as="alternateBounds"/>
                    </mxGeometry>
                </mxCell>
                <mxCell id="6_USbcZTwtyikpzRYTAM-87" style="shape=tableRow;horizontal=0;startSize=0;swimlaneHead=0;swimlaneBody=0;fillColor=none;collapsible=0;dropTarget=0;points=[[0,0.5],[1,0.5]];portConstraint=eastwest;top=0;left=0;right=0;bottom=0;rounded=1;" vertex="1" parent="6_USbcZTwtyikpzRYTAM-80">
                    <mxGeometry y="110" width="180" height="30" as="geometry"/>
                </mxCell>
                <mxCell id="6_USbcZTwtyikpzRYTAM-88" style="shape=partialRectangle;connectable=0;fillColor=none;top=0;left=0;bottom=0;right=0;editable=1;overflow=hidden;rounded=1;" vertex="1" parent="6_USbcZTwtyikpzRYTAM-87">
                    <mxGeometry width="30" height="30" as="geometry">
                        <mxRectangle width="30" height="30" as="alternateBounds"/>
                    </mxGeometry>
                </mxCell>
                <mxCell id="6_USbcZTwtyikpzRYTAM-89" value="isFirst" style="shape=partialRectangle;connectable=0;fillColor=none;top=0;left=0;bottom=0;right=0;align=left;spacingLeft=6;overflow=hidden;rounded=1;" vertex="1" parent="6_USbcZTwtyikpzRYTAM-87">
                    <mxGeometry x="30" width="150" height="30" as="geometry">
                        <mxRectangle width="150" height="30" as="alternateBounds"/>
                    </mxGeometry>
                </mxCell>
                <mxCell id="6_USbcZTwtyikpzRYTAM-102" style="edgeStyle=none;html=1;exitX=0;exitY=0.5;exitDx=0;exitDy=0;entryX=1;entryY=0.5;entryDx=0;entryDy=0;startArrow=ERone;startFill=0;endArrow=ERzeroToMany;endFill=0;" edge="1" parent="1" source="6_USbcZTwtyikpzRYTAM-24" target="6_USbcZTwtyikpzRYTAM-81">
                    <mxGeometry relative="1" as="geometry">
                        <mxPoint x="-60" y="90" as="sourcePoint"/>
                        <mxPoint x="50" y="90" as="targetPoint"/>
                    </mxGeometry>
                </mxCell>
                <mxCell id="6_USbcZTwtyikpzRYTAM-103" value="comments" style="shape=table;startSize=30;container=1;collapsible=1;childLayout=tableLayout;fixedRows=1;rowLines=0;fontStyle=1;align=center;resizeLast=1;rounded=1;" vertex="1" parent="1">
                    <mxGeometry x="-305" y="320" width="180" height="170" as="geometry"/>
                </mxCell>
                <mxCell id="6_USbcZTwtyikpzRYTAM-119" style="shape=tableRow;horizontal=0;startSize=0;swimlaneHead=0;swimlaneBody=0;fillColor=none;collapsible=0;dropTarget=0;points=[[0,0.5],[1,0.5]];portConstraint=eastwest;top=0;left=0;right=0;bottom=1;rounded=1;" vertex="1" parent="6_USbcZTwtyikpzRYTAM-103">
                    <mxGeometry y="30" width="180" height="30" as="geometry"/>
                </mxCell>
                <mxCell id="6_USbcZTwtyikpzRYTAM-120" value="PK" style="shape=partialRectangle;connectable=0;fillColor=none;top=0;left=0;bottom=0;right=0;fontStyle=1;overflow=hidden;rounded=1;" vertex="1" parent="6_USbcZTwtyikpzRYTAM-119">
                    <mxGeometry width="30" height="30" as="geometry">
                        <mxRectangle width="30" height="30" as="alternateBounds"/>
                    </mxGeometry>
                </mxCell>
                <mxCell id="6_USbcZTwtyikpzRYTAM-121" value="commentId" style="shape=partialRectangle;connectable=0;fillColor=none;top=0;left=0;bottom=0;right=0;align=left;spacingLeft=6;fontStyle=5;overflow=hidden;rounded=1;" vertex="1" parent="6_USbcZTwtyikpzRYTAM-119">
                    <mxGeometry x="30" width="150" height="30" as="geometry">
                        <mxRectangle width="150" height="30" as="alternateBounds"/>
                    </mxGeometry>
                </mxCell>
                <mxCell id="6_USbcZTwtyikpzRYTAM-107" value="" style="shape=tableRow;horizontal=0;startSize=0;swimlaneHead=0;swimlaneBody=0;fillColor=none;collapsible=0;dropTarget=0;points=[[0,0.5],[1,0.5]];portConstraint=eastwest;top=0;left=0;right=0;bottom=1;rounded=1;" vertex="1" parent="6_USbcZTwtyikpzRYTAM-103">
                    <mxGeometry y="60" width="180" height="30" as="geometry"/>
                </mxCell>
                <mxCell id="6_USbcZTwtyikpzRYTAM-108" value="FK" style="shape=partialRectangle;connectable=0;fillColor=none;top=0;left=0;bottom=0;right=0;fontStyle=1;overflow=hidden;rounded=1;" vertex="1" parent="6_USbcZTwtyikpzRYTAM-107">
                    <mxGeometry width="30" height="30" as="geometry">
                        <mxRectangle width="30" height="30" as="alternateBounds"/>
                    </mxGeometry>
                </mxCell>
                <mxCell id="6_USbcZTwtyikpzRYTAM-109" value="matcheId" style="shape=partialRectangle;connectable=0;fillColor=none;top=0;left=0;bottom=0;right=0;align=left;spacingLeft=6;fontStyle=5;overflow=hidden;rounded=1;" vertex="1" parent="6_USbcZTwtyikpzRYTAM-107">
                    <mxGeometry x="30" width="150" height="30" as="geometry">
                        <mxRectangle width="150" height="30" as="alternateBounds"/>
                    </mxGeometry>
                </mxCell>
                <mxCell id="6_USbcZTwtyikpzRYTAM-110" style="shape=tableRow;horizontal=0;startSize=0;swimlaneHead=0;swimlaneBody=0;fillColor=none;collapsible=0;dropTarget=0;points=[[0,0.5],[1,0.5]];portConstraint=eastwest;top=0;left=0;right=0;bottom=0;rounded=1;" vertex="1" parent="6_USbcZTwtyikpzRYTAM-103">
                    <mxGeometry y="90" width="180" height="20" as="geometry"/>
                </mxCell>
                <mxCell id="6_USbcZTwtyikpzRYTAM-111" style="shape=partialRectangle;connectable=0;fillColor=none;top=0;left=0;bottom=0;right=0;editable=1;overflow=hidden;rounded=1;" vertex="1" parent="6_USbcZTwtyikpzRYTAM-110">
                    <mxGeometry width="30" height="20" as="geometry">
                        <mxRectangle width="30" height="20" as="alternateBounds"/>
                    </mxGeometry>
                </mxCell>
                <mxCell id="6_USbcZTwtyikpzRYTAM-112" value="playerId" style="shape=partialRectangle;connectable=0;fillColor=none;top=0;left=0;bottom=0;right=0;align=left;spacingLeft=6;overflow=hidden;rounded=1;" vertex="1" parent="6_USbcZTwtyikpzRYTAM-110">
                    <mxGeometry x="30" width="150" height="20" as="geometry">
                        <mxRectangle width="150" height="20" as="alternateBounds"/>
                    </mxGeometry>
                </mxCell>
                <mxCell id="6_USbcZTwtyikpzRYTAM-113" style="shape=tableRow;horizontal=0;startSize=0;swimlaneHead=0;swimlaneBody=0;fillColor=none;collapsible=0;dropTarget=0;points=[[0,0.5],[1,0.5]];portConstraint=eastwest;top=0;left=0;right=0;bottom=0;rounded=1;" vertex="1" parent="6_USbcZTwtyikpzRYTAM-103">
                    <mxGeometry y="110" width="180" height="30" as="geometry"/>
                </mxCell>
                <mxCell id="6_USbcZTwtyikpzRYTAM-114" style="shape=partialRectangle;connectable=0;fillColor=none;top=0;left=0;bottom=0;right=0;editable=1;overflow=hidden;rounded=1;" vertex="1" parent="6_USbcZTwtyikpzRYTAM-113">
                    <mxGeometry width="30" height="30" as="geometry">
                        <mxRectangle width="30" height="30" as="alternateBounds"/>
                    </mxGeometry>
                </mxCell>
                <mxCell id="6_USbcZTwtyikpzRYTAM-115" value="text" style="shape=partialRectangle;connectable=0;fillColor=none;top=0;left=0;bottom=0;right=0;align=left;spacingLeft=6;overflow=hidden;rounded=1;" vertex="1" parent="6_USbcZTwtyikpzRYTAM-113">
                    <mxGeometry x="30" width="150" height="30" as="geometry">
                        <mxRectangle width="150" height="30" as="alternateBounds"/>
                    </mxGeometry>
                </mxCell>
                <mxCell id="6_USbcZTwtyikpzRYTAM-116" style="shape=tableRow;horizontal=0;startSize=0;swimlaneHead=0;swimlaneBody=0;fillColor=none;collapsible=0;dropTarget=0;points=[[0,0.5],[1,0.5]];portConstraint=eastwest;top=0;left=0;right=0;bottom=0;rounded=1;" vertex="1" parent="6_USbcZTwtyikpzRYTAM-103">
                    <mxGeometry y="140" width="180" height="30" as="geometry"/>
                </mxCell>
                <mxCell id="6_USbcZTwtyikpzRYTAM-117" style="shape=partialRectangle;connectable=0;fillColor=none;top=0;left=0;bottom=0;right=0;editable=1;overflow=hidden;rounded=1;" vertex="1" parent="6_USbcZTwtyikpzRYTAM-116">
                    <mxGeometry width="30" height="30" as="geometry">
                        <mxRectangle width="30" height="30" as="alternateBounds"/>
                    </mxGeometry>
                </mxCell>
                <mxCell id="6_USbcZTwtyikpzRYTAM-118" value="date" style="shape=partialRectangle;connectable=0;fillColor=none;top=0;left=0;bottom=0;right=0;align=left;spacingLeft=6;overflow=hidden;rounded=1;" vertex="1" parent="6_USbcZTwtyikpzRYTAM-116">
                    <mxGeometry x="30" width="150" height="30" as="geometry">
                        <mxRectangle width="150" height="30" as="alternateBounds"/>
                    </mxGeometry>
                </mxCell>
                <mxCell id="6_USbcZTwtyikpzRYTAM-122" style="edgeStyle=none;html=1;exitX=0;exitY=0.5;exitDx=0;exitDy=0;entryX=1;entryY=0.5;entryDx=0;entryDy=0;startArrow=ERone;startFill=0;endArrow=ERzeroToMany;endFill=0;" edge="1" parent="1" target="6_USbcZTwtyikpzRYTAM-119">
                    <mxGeometry relative="1" as="geometry">
                        <mxPoint x="10" y="225" as="sourcePoint"/>
                        <mxPoint x="-119" y="225" as="targetPoint"/>
                        <Array as="points">
                            <mxPoint x="-100" y="225"/>
                            <mxPoint x="-100" y="365"/>
                        </Array>
                    </mxGeometry>
                </mxCell>
                <mxCell id="6_USbcZTwtyikpzRYTAM-123" value="groups" style="shape=table;startSize=30;container=1;collapsible=1;childLayout=tableLayout;fixedRows=1;rowLines=0;fontStyle=1;align=center;resizeLast=1;rounded=1;" vertex="1" parent="1">
                    <mxGeometry x="-299" y="550" width="180" height="120" as="geometry"/>
                </mxCell>
                <mxCell id="6_USbcZTwtyikpzRYTAM-124" value="" style="shape=tableRow;horizontal=0;startSize=0;swimlaneHead=0;swimlaneBody=0;fillColor=none;collapsible=0;dropTarget=0;points=[[0,0.5],[1,0.5]];portConstraint=eastwest;top=0;left=0;right=0;bottom=1;rounded=1;" vertex="1" parent="6_USbcZTwtyikpzRYTAM-123">
                    <mxGeometry y="30" width="180" height="30" as="geometry"/>
                </mxCell>
                <mxCell id="6_USbcZTwtyikpzRYTAM-125" value="PK" style="shape=partialRectangle;connectable=0;fillColor=none;top=0;left=0;bottom=0;right=0;fontStyle=1;overflow=hidden;rounded=1;" vertex="1" parent="6_USbcZTwtyikpzRYTAM-124">
                    <mxGeometry width="30" height="30" as="geometry">
                        <mxRectangle width="30" height="30" as="alternateBounds"/>
                    </mxGeometry>
                </mxCell>
                <mxCell id="6_USbcZTwtyikpzRYTAM-126" value="groupId" style="shape=partialRectangle;connectable=0;fillColor=none;top=0;left=0;bottom=0;right=0;align=left;spacingLeft=6;fontStyle=5;overflow=hidden;rounded=1;" vertex="1" parent="6_USbcZTwtyikpzRYTAM-124">
                    <mxGeometry x="30" width="150" height="30" as="geometry">
                        <mxRectangle width="150" height="30" as="alternateBounds"/>
                    </mxGeometry>
                </mxCell>
                <mxCell id="6_USbcZTwtyikpzRYTAM-127" style="shape=tableRow;horizontal=0;startSize=0;swimlaneHead=0;swimlaneBody=0;fillColor=none;collapsible=0;dropTarget=0;points=[[0,0.5],[1,0.5]];portConstraint=eastwest;top=0;left=0;right=0;bottom=0;rounded=1;" vertex="1" parent="6_USbcZTwtyikpzRYTAM-123">
                    <mxGeometry y="60" width="180" height="30" as="geometry"/>
                </mxCell>
                <mxCell id="6_USbcZTwtyikpzRYTAM-128" style="shape=partialRectangle;connectable=0;fillColor=none;top=0;left=0;bottom=0;right=0;editable=1;overflow=hidden;rounded=1;" vertex="1" parent="6_USbcZTwtyikpzRYTAM-127">
                    <mxGeometry width="30" height="30" as="geometry">
                        <mxRectangle width="30" height="30" as="alternateBounds"/>
                    </mxGeometry>
                </mxCell>
                <mxCell id="6_USbcZTwtyikpzRYTAM-129" value="name" style="shape=partialRectangle;connectable=0;fillColor=none;top=0;left=0;bottom=0;right=0;align=left;spacingLeft=6;overflow=hidden;rounded=1;" vertex="1" parent="6_USbcZTwtyikpzRYTAM-127">
                    <mxGeometry x="30" width="150" height="30" as="geometry">
                        <mxRectangle width="150" height="30" as="alternateBounds"/>
                    </mxGeometry>
                </mxCell>
                <mxCell id="6_USbcZTwtyikpzRYTAM-130" style="shape=tableRow;horizontal=0;startSize=0;swimlaneHead=0;swimlaneBody=0;fillColor=none;collapsible=0;dropTarget=0;points=[[0,0.5],[1,0.5]];portConstraint=eastwest;top=0;left=0;right=0;bottom=0;rounded=1;" vertex="1" parent="6_USbcZTwtyikpzRYTAM-123">
                    <mxGeometry y="90" width="180" height="30" as="geometry"/>
                </mxCell>
                <mxCell id="6_USbcZTwtyikpzRYTAM-131" style="shape=partialRectangle;connectable=0;fillColor=none;top=0;left=0;bottom=0;right=0;editable=1;overflow=hidden;rounded=1;" vertex="1" parent="6_USbcZTwtyikpzRYTAM-130">
                    <mxGeometry width="30" height="30" as="geometry">
                        <mxRectangle width="30" height="30" as="alternateBounds"/>
                    </mxGeometry>
                </mxCell>
                <mxCell id="6_USbcZTwtyikpzRYTAM-132" style="shape=partialRectangle;connectable=0;fillColor=none;top=0;left=0;bottom=0;right=0;align=left;spacingLeft=6;overflow=hidden;rounded=1;" vertex="1" parent="6_USbcZTwtyikpzRYTAM-130">
                    <mxGeometry x="30" width="150" height="30" as="geometry">
                        <mxRectangle width="150" height="30" as="alternateBounds"/>
                    </mxGeometry>
                </mxCell>
                <mxCell id="6_USbcZTwtyikpzRYTAM-133" value="affiliation" style="shape=table;startSize=30;container=1;collapsible=1;childLayout=tableLayout;fixedRows=1;rowLines=0;fontStyle=1;align=center;resizeLast=1;rounded=1;" vertex="1" parent="1">
                    <mxGeometry x="30" y="686" width="180" height="90" as="geometry"/>
                </mxCell>
                <mxCell id="6_USbcZTwtyikpzRYTAM-137" style="shape=tableRow;horizontal=0;startSize=0;swimlaneHead=0;swimlaneBody=0;fillColor=none;collapsible=0;dropTarget=0;points=[[0,0.5],[1,0.5]];portConstraint=eastwest;top=0;left=0;right=0;bottom=0;rounded=1;" vertex="1" parent="6_USbcZTwtyikpzRYTAM-133">
                    <mxGeometry y="30" width="180" height="30" as="geometry"/>
                </mxCell>
                <mxCell id="6_USbcZTwtyikpzRYTAM-138" style="shape=partialRectangle;connectable=0;fillColor=none;top=0;left=0;bottom=0;right=0;editable=1;overflow=hidden;rounded=1;" vertex="1" parent="6_USbcZTwtyikpzRYTAM-137">
                    <mxGeometry width="30" height="30" as="geometry">
                        <mxRectangle width="30" height="30" as="alternateBounds"/>
                    </mxGeometry>
                </mxCell>
                <mxCell id="6_USbcZTwtyikpzRYTAM-139" value="groupId" style="shape=partialRectangle;connectable=0;fillColor=none;top=0;left=0;bottom=0;right=0;align=left;spacingLeft=6;overflow=hidden;rounded=1;" vertex="1" parent="6_USbcZTwtyikpzRYTAM-137">
                    <mxGeometry x="30" width="150" height="30" as="geometry">
                        <mxRectangle width="150" height="30" as="alternateBounds"/>
                    </mxGeometry>
                </mxCell>
                <mxCell id="6_USbcZTwtyikpzRYTAM-140" style="shape=tableRow;horizontal=0;startSize=0;swimlaneHead=0;swimlaneBody=0;fillColor=none;collapsible=0;dropTarget=0;points=[[0,0.5],[1,0.5]];portConstraint=eastwest;top=0;left=0;right=0;bottom=0;rounded=1;" vertex="1" parent="6_USbcZTwtyikpzRYTAM-133">
                    <mxGeometry y="60" width="180" height="30" as="geometry"/>
                </mxCell>
                <mxCell id="6_USbcZTwtyikpzRYTAM-141" style="shape=partialRectangle;connectable=0;fillColor=none;top=0;left=0;bottom=0;right=0;editable=1;overflow=hidden;rounded=1;" vertex="1" parent="6_USbcZTwtyikpzRYTAM-140">
                    <mxGeometry width="30" height="30" as="geometry">
                        <mxRectangle width="30" height="30" as="alternateBounds"/>
                    </mxGeometry>
                </mxCell>
                <mxCell id="6_USbcZTwtyikpzRYTAM-142" value="playerId" style="shape=partialRectangle;connectable=0;fillColor=none;top=0;left=0;bottom=0;right=0;align=left;spacingLeft=6;overflow=hidden;rounded=1;" vertex="1" parent="6_USbcZTwtyikpzRYTAM-140">
                    <mxGeometry x="30" width="150" height="30" as="geometry">
                        <mxRectangle width="150" height="30" as="alternateBounds"/>
                    </mxGeometry>
                </mxCell>
                <mxCell id="6_USbcZTwtyikpzRYTAM-143" style="edgeStyle=none;html=1;exitX=1;exitY=0.5;exitDx=0;exitDy=0;startArrow=ERone;startFill=0;endArrow=ERzeroToMany;endFill=0;entryX=0;entryY=0.5;entryDx=0;entryDy=0;" edge="1" parent="1" source="6_USbcZTwtyikpzRYTAM-58" target="6_USbcZTwtyikpzRYTAM-140">
                    <mxGeometry relative="1" as="geometry">
                        <mxPoint x="20" y="779.9999999999998" as="targetPoint"/>
                    </mxGeometry>
                </mxCell>
                <mxCell id="6_USbcZTwtyikpzRYTAM-144" style="edgeStyle=none;html=1;exitX=1;exitY=0.5;exitDx=0;exitDy=0;entryX=0;entryY=0.5;entryDx=0;entryDy=0;startArrow=ERone;startFill=0;endArrow=ERzeroToMany;endFill=0;" edge="1" parent="1" source="6_USbcZTwtyikpzRYTAM-124" target="6_USbcZTwtyikpzRYTAM-137">
                    <mxGeometry relative="1" as="geometry">
                        <Array as="points">
                            <mxPoint x="-50" y="595"/>
                            <mxPoint x="-50" y="730"/>
                        </Array>
                    </mxGeometry>
                </mxCell>
            </root>
        </mxGraphModel>
    </diagram>
</mxfile>